<?xml version="1.0" standalone="no"?>
<!DOCTYPE svg PUBLIC "-//W3C//DTD SVG 1.1//EN" "http://www.w3.org/Graphics/SVG/1.1/DTD/svg11.dtd" >
<svg xmlns="http://www.w3.org/2000/svg" xmlns:xlink="http://www.w3.org/1999/xlink" version="1.1">
<metadata>
Created by FontForge 20190801 at Sun Feb 14 22:50:18 2016
 By root
Copyright \(c\) 2015 by Genilson Lima Santos \(genilson.santos@gmail.com\), with Reserved Font Name 'Stilu'.
</metadata>
<defs>
<font id="Stilu-Regular" horiz-adv-x="640" >
  <font-face 
    font-family="Stilu"
    font-weight="400"
    font-stretch="normal"
    units-per-em="1000"
    panose-1="0 0 5 0 0 0 0 0 0 0"
    ascent="800"
    descent="-200"
    x-height="550"
    cap-height="725"
    bbox="-150 -251 1095 1008"
    underline-thickness="50"
    underline-position="-100"
    stemh="78"
    stemv="88"
    unicode-range="U+0020-FB02"
  />
<missing-glyph horiz-adv-x="500" 
d="M438 750v-750h-375v750h375zM375 688h-250v-625h250v625z" />
    <glyph glyph-name="f_f" unicode="ff" horiz-adv-x="658" 
d="M574 670c-69 0 -85 -33 -85 -120h104v-76h-104v-474h-88v474h-197v-474h-88v474h-75v76h75c-1 138 45 201 162 201c23 0 48 -3 76 -7l-14 -78c-20 3 -36 4 -51 4c-70 0 -85 -33 -85 -120h197c0 138 45 201 162 201c23 0 48 -3 76 -7l-14 -78c-20 3 -36 4 -51 4z" />
    <glyph glyph-name="f_f_i" unicode="ffi" horiz-adv-x="877" 
d="M791 550v-550h-88v474h-214v-474h-88v474h-197v-474h-88v474h-75v76h75c-1 138 45 201 162 201c23 0 48 -3 76 -7l-14 -78c-20 3 -36 4 -51 4c-70 0 -85 -33 -85 -120h197c0 138 45 201 162 201c23 0 48 -3 76 -7l-14 -78c-20 3 -36 4 -51 4c-69 0 -85 -33 -85 -120h302z
" />
    <glyph glyph-name="fi" unicode="fi" horiz-adv-x="592" 
d="M506 550v-550h-88v474h-214v-474h-88v474h-73v76h73v4c0 135 46 197 162 197c23 0 48 -3 76 -7l-14 -78c-20 3 -37 4 -51 4c-70 0 -85 -33 -85 -120h302z" />
    <glyph glyph-name="fl" unicode="fl" horiz-adv-x="610" 
d="M116 550c-1 138 45 201 162 201c23 0 48 -3 76 -7l-14 -78c-20 3 -36 4 -51 4c-70 0 -85 -33 -85 -120h104v-76h-104v-474h-88v474h-75v76h75zM553 65l12 -70c-11 -4 -24 -7 -46 -7c-68 0 -93 35 -93 105v657h88v-653c0 -25 10 -34 22 -34c5 0 9 0 17 2z" />
    <glyph glyph-name=".notdef" horiz-adv-x="500" 
d="M438 750v-750h-375v750h375zM375 688h-250v-625h250v625z" />
    <glyph glyph-name="A" unicode="A" horiz-adv-x="655" 
d="M550 0l-88 254h-270l-87 -254h-100l259 725h125l261 -725h-100zM220 337h213l-105 306h-3z" />
    <glyph glyph-name="Aacute" unicode="&#xc1;" horiz-adv-x="655" 
d="M444 925l-95 -144h-72l74 144h93zM550 0l-88 254h-270l-87 -254h-100l259 725h125l261 -725h-100zM220 337h213l-105 306h-3z" />
    <glyph glyph-name="Acircumflex" unicode="&#xc2;" horiz-adv-x="655" 
d="M326 871l-92 -89h-65l113 143h89l112 -143h-65zM550 0l-88 254h-270l-87 -254h-100l259 725h125l261 -725h-100zM220 337h213l-105 306h-3z" />
    <glyph glyph-name="Adieresis" unicode="&#xc4;" horiz-adv-x="655" 
d="M228 815c-28 0 -51 23 -51 51s23 51 51 51s51 -23 51 -51s-23 -51 -51 -51zM424 815c-27 0 -51 23 -51 51s24 51 51 51c28 0 51 -23 51 -51s-23 -51 -51 -51zM550 0l-88 254h-270l-87 -254h-100l259 725h125l261 -725h-100zM220 337h213l-105 306h-3z" />
    <glyph glyph-name="Agrave" unicode="&#xc0;" horiz-adv-x="655" 
d="M361 796l-61 -15l-90 129l78 15zM550 0l-88 254h-270l-87 -254h-100l259 725h125l261 -725h-100zM220 337h213l-105 306h-3z" />
    <glyph glyph-name="Aring" unicode="&#xc5;" horiz-adv-x="655" 
d="M325 794c-59 0 -104 47 -104 106c0 58 46 108 104 108s106 -50 106 -108s-48 -106 -106 -106zM326 963c-32 0 -61 -29 -61 -61c0 -33 28 -63 61 -63c34 0 61 34 61 63c0 32 -29 61 -61 61zM550 0l-88 254h-270l-87 -254h-100l259 725h125l261 -725h-100zM220 337h213
l-105 306h-3z" />
    <glyph glyph-name="Atilde" unicode="&#xc3;" horiz-adv-x="655" 
d="M317 812c-45 27 -79 19 -110 -21l-49 48c55 68 122 77 192 25c39 -22 75 -5 96 27l51 -41c-43 -67 -112 -79 -180 -38zM550 0l-88 254h-270l-87 -254h-100l259 725h125l261 -725h-100zM220 337h213l-105 306h-3z" />
    <glyph glyph-name="AE" unicode="&#xc6;" horiz-adv-x="805" 
d="M755 641h-289v-217h235v-84h-235v-256h289v-84h-383v254h-181l-87 -254h-99l259 725h128h363v-84zM220 337h152v304h-47z" />
    <glyph glyph-name="B" unicode="B" horiz-adv-x="599" 
d="M442 381c60 -27 106 -81 106 -174c0 -122 -76 -207 -244 -207h-203v725h165c164 0 241 -75 241 -196c0 -70 -26 -119 -65 -148zM414 524c0 73 -43 117 -159 117h-60v-234h89c78 0 130 37 130 117zM293 84c115 0 162 38 162 119c0 87 -55 121 -157 121h-103v-240h98z" />
    <glyph glyph-name="C" unicode="C" horiz-adv-x="707" 
d="M656 133c-52 -94 -146 -148 -263 -148c-208 0 -318 169 -318 377s110 379 318 379c120 0 212 -57 263 -154l-76 -50c-32 71 -94 118 -188 118c-158 0 -220 -137 -220 -293c0 -157 61 -291 220 -291c92 0 156 43 189 111z" />
    <glyph glyph-name="Ccedilla" unicode="&#xc7;" horiz-adv-x="707" 
d="M656 133c-47 -86 -130 -138 -233 -147c1 -9 1 -17 1 -25c0 -98 -59 -140 -142 -140c-26 0 -54 4 -84 12v77c25 -6 49 -10 70 -10c44 0 73 18 73 74c0 5 0 10 -1 15c-173 26 -265 183 -265 373c0 208 110 379 318 379c120 0 212 -57 263 -154l-76 -50
c-32 71 -94 118 -188 118c-158 0 -220 -137 -220 -293c0 -157 61 -291 220 -291c92 0 156 43 189 111z" />
    <glyph glyph-name="D" unicode="D" horiz-adv-x="725" 
d="M336 725c207 0 313 -155 313 -362c0 -209 -99 -363 -313 -363h-235v725h235zM335 85c163 0 220 115 220 277c0 156 -60 278 -220 278h-140v-555h140z" />
    <glyph glyph-name="Eth" unicode="&#xd0;" horiz-adv-x="737" 
d="M346 725c207 0 313 -155 313 -362c0 -209 -99 -363 -313 -363h-235v354h-92v84h92v287h235zM344 85c164 0 221 115 221 277c0 156 -60 278 -221 278h-140v-202h166v-84h-166v-269h140z" />
    <glyph glyph-name="E" unicode="E" horiz-adv-x="547" 
d="M483 641h-288v-217h234v-84h-234v-256h288v-84h-382v725h382v-84z" />
    <glyph glyph-name="Eacute" unicode="&#xc9;" horiz-adv-x="547" 
d="M415 925l-95 -144h-72l74 144h93zM483 641h-288v-217h234v-84h-234v-256h288v-84h-382v725h382v-84z" />
    <glyph glyph-name="Ecircumflex" unicode="&#xca;" horiz-adv-x="547" 
d="M297 871l-92 -89h-65l113 143h89l112 -143h-65zM483 641h-288v-217h234v-84h-234v-256h288v-84h-382v725h382v-84z" />
    <glyph glyph-name="Edieresis" unicode="&#xcb;" horiz-adv-x="547" 
d="M199 815c-28 0 -51 23 -51 51s23 51 51 51s51 -23 51 -51s-23 -51 -51 -51zM395 815c-27 0 -51 23 -51 51s24 51 51 51c28 0 51 -23 51 -51s-23 -51 -51 -51zM483 641h-288v-217h234v-84h-234v-256h288v-84h-382v725h382v-84z" />
    <glyph glyph-name="Egrave" unicode="&#xc8;" horiz-adv-x="547" 
d="M332 796l-61 -15l-90 129l78 15zM483 641h-288v-217h234v-84h-234v-256h288v-84h-382v725h382v-84z" />
    <glyph glyph-name="F" unicode="F" horiz-adv-x="523" 
d="M473 641h-278v-214h224v-84h-224v-343h-94v725h372v-84z" />
    <glyph glyph-name="G" unicode="G" horiz-adv-x="758" 
d="M403 344h263v-344h-69l-10 67c-45 -52 -109 -82 -197 -82c-208 0 -315 167 -315 376c0 207 107 380 315 380c119 0 210 -59 261 -153l-75 -52c-32 69 -94 119 -187 119c-158 0 -220 -139 -220 -295c0 -157 61 -289 220 -289c119 0 186 74 191 180v9h-177v84z" />
    <glyph glyph-name="H" unicode="H" horiz-adv-x="698" 
d="M503 725h94v-725h-94v339l-308 1v-340h-94v725h94v-302h308v302z" />
    <glyph glyph-name="I" unicode="I" horiz-adv-x="296" 
d="M195 725v-725h-94v725h94z" />
    <glyph glyph-name="Iacute" unicode="&#xcd;" horiz-adv-x="296" 
d="M269 924l-94 -144h-73l74 144h93zM195 725v-725h-94v725h94z" />
    <glyph glyph-name="Icircumflex" unicode="&#xce;" horiz-adv-x="296" 
d="M192 925l112 -143h-65l-92 89l-92 -89h-65l113 143h89zM195 725v-725h-94v725h94z" />
    <glyph glyph-name="Idieresis" unicode="&#xcf;" horiz-adv-x="296" 
d="M50 917c28 0 51 -23 51 -51s-23 -51 -51 -51s-51 23 -51 51s23 51 51 51zM246 917c28 0 51 -23 51 -51s-23 -51 -51 -51c-27 0 -51 23 -51 51s24 51 51 51zM195 725v-725h-94v725h94z" />
    <glyph glyph-name="Igrave" unicode="&#xcc;" horiz-adv-x="296" 
d="M110 925l73 -129l-61 -15l-90 129zM195 725v-725h-94v725h94z" />
    <glyph glyph-name="J" unicode="J" horiz-adv-x="508" 
d="M313 725h94v-505c0 -180 -98 -235 -212 -235c-83 0 -154 46 -189 113l75 52c17 -45 56 -79 114 -79c76 0 118 38 118 157v497z" />
    <glyph glyph-name="K" unicode="K" horiz-adv-x="616" 
d="M497 0l-208 373l-94 -113v-260h-94v725h94v-334l281 334h106l-228 -274l247 -451h-104z" />
    <glyph glyph-name="L" unicode="L" horiz-adv-x="484" 
d="M195 725v-642h269v-83h-363v725h94z" />
    <glyph glyph-name="Ldot" unicode="&#x13f;" horiz-adv-x="484" 
d="M195 725v-642h269v-83h-363v725h94zM391 429c36 0 67 -31 67 -67c0 -38 -29 -66 -67 -66c-39 0 -66 27 -66 66c0 38 28 67 66 67z" />
    <glyph glyph-name="Lslash" unicode="&#x141;" horiz-adv-x="507" 
d="M219 83h278v-83h-372v251l-84 -82v101l84 82v373h94v-282l108 105v-101l-108 -105v-259z" />
    <glyph glyph-name="M" unicode="M" horiz-adv-x="861" 
d="M760 725v-725h-94v613l-199 -613h-95l-187 613v-613h-94v725h94h62l173 -628l190 628h150z" />
    <glyph glyph-name="N" unicode="N" horiz-adv-x="680" 
d="M495 725h94v-725h-94h-37l-273 644v-644h-94v725h94h61l249 -600v600z" />
    <glyph glyph-name="Ntilde" unicode="&#xd1;" horiz-adv-x="680" 
d="M328 812c-45 27 -79 19 -110 -21l-49 48c55 68 122 77 192 25c39 -22 75 -5 96 27l51 -41c-43 -67 -112 -79 -180 -38zM495 725h94v-725h-94h-37l-273 644v-644h-94v725h94h61l249 -600v600z" />
    <glyph glyph-name="O" unicode="O" horiz-adv-x="779" 
d="M390 -15c-208 0 -314 169 -314 378c0 207 106 378 314 378c207 0 313 -171 313 -378c0 -209 -106 -378 -313 -378zM390 71c160 0 217 134 217 291c0 156 -57 293 -217 293s-217 -137 -217 -293c0 -157 57 -291 217 -291z" />
    <glyph glyph-name="Oacute" unicode="&#xd3;" horiz-adv-x="779" 
d="M508 925l-95 -144h-72l74 144h93zM390 -15c-208 0 -314 169 -314 378c0 207 106 378 314 378c207 0 313 -171 313 -378c0 -209 -106 -378 -313 -378zM390 71c160 0 217 134 217 291c0 156 -57 293 -217 293s-217 -137 -217 -293c0 -157 57 -291 217 -291z" />
    <glyph glyph-name="Ocircumflex" unicode="&#xd4;" horiz-adv-x="779" 
d="M434 925l112 -143h-65l-92 89l-92 -89h-65l113 143h89zM390 -15c-208 0 -314 169 -314 378c0 207 106 378 314 378c207 0 313 -171 313 -378c0 -209 -106 -378 -313 -378zM390 71c160 0 217 134 217 291c0 156 -57 293 -217 293s-217 -137 -217 -293
c0 -157 57 -291 217 -291z" />
    <glyph glyph-name="Odieresis" unicode="&#xd6;" horiz-adv-x="748" 
d="M276 881c28 0 51 -23 51 -51s-23 -51 -51 -51s-51 23 -51 51s23 51 51 51zM472 881c28 0 51 -23 51 -51s-23 -51 -51 -51s-51 23 -51 51s23 51 51 51zM374 -15c-208 0 -314 169 -314 378c0 207 106 378 314 378s314 -171 314 -378c0 -209 -106 -378 -314 -378zM374 72
c161 0 218 133 218 290c0 156 -57 292 -218 292c-160 0 -218 -136 -218 -292c0 -157 58 -290 218 -290z" />
    <glyph glyph-name="Ograve" unicode="&#xd2;" horiz-adv-x="779" 
d="M351 925l73 -129l-61 -15l-90 129zM390 -15c-208 0 -314 169 -314 378c0 207 106 378 314 378c207 0 313 -171 313 -378c0 -209 -106 -378 -313 -378zM390 71c160 0 217 134 217 291c0 156 -57 293 -217 293s-217 -137 -217 -293c0 -157 57 -291 217 -291z" />
    <glyph glyph-name="Oslash" unicode="&#xd8;" horiz-adv-x="779" 
d="M604 654c66 -70 99 -175 99 -291c0 -209 -106 -378 -313 -378c-54 0 -100 11 -140 31l-36 -66l-69 39l40 73c-72 69 -109 178 -109 301c0 207 106 378 314 378c58 0 109 -14 151 -38l35 64l68 -40zM170 362c0 -86 18 -165 60 -219l269 484c-30 18 -66 28 -109 28
c-160 0 -220 -137 -220 -293zM390 71c160 0 219 134 219 291c0 80 -15 154 -52 208l-265 -478c28 -13 60 -21 98 -21z" />
    <glyph glyph-name="Otilde" unicode="&#xd5;" horiz-adv-x="779" 
d="M509 891l51 -41c-43 -67 -112 -79 -180 -38c-45 27 -79 19 -110 -21l-49 48c55 68 122 77 192 25c39 -22 75 -5 96 27zM390 -15c-208 0 -314 169 -314 378c0 207 106 378 314 378c207 0 313 -171 313 -378c0 -209 -106 -378 -313 -378zM390 71c160 0 217 134 217 291
c0 156 -57 293 -217 293s-217 -137 -217 -293c0 -157 57 -291 217 -291z" />
    <glyph glyph-name="OE" unicode="&#x152;" horiz-adv-x="879" 
d="M829 641h-288v-217h234v-84h-234v-256h288v-84h-439c-208 0 -315 154 -315 363c0 207 107 362 315 362h439v-84zM389 84h58v557h-58c-159 0 -220 -123 -220 -279c0 -157 61 -278 220 -278z" />
    <glyph glyph-name="P" unicode="P" horiz-adv-x="612" 
d="M537 511c0 -187 -140 -236 -342 -238v-273h-94v725h192c167 0 244 -93 244 -214zM195 360c169 0 249 39 249 141c0 79 -40 140 -162 140h-87v-281z" />
    <glyph glyph-name="Thorn" unicode="&#xde;" horiz-adv-x="555" 
d="M498 390c0 -181 -133 -225 -302 -228v-162h-95v725h95v-112c202 -2 302 -65 302 -223zM196 255c134 2 209 28 209 126c0 105 -57 138 -209 139v-265z" />
    <glyph glyph-name="Q" unicode="Q" horiz-adv-x="779" 
d="M477 -4c64 -63 158 -71 160 -67l-25 -83c-96 0 -200 55 -260 141c-183 19 -276 180 -276 376c0 207 106 378 314 378c207 0 313 -171 313 -378c0 -177 -76 -326 -226 -367zM173 362c0 -157 57 -291 217 -291s217 134 217 291c0 156 -57 293 -217 293s-217 -137 -217 -293
z" />
    <glyph glyph-name="R" unicode="R" horiz-adv-x="609" 
d="M386 306c55 -54 107 -179 158 -306h-98c-75 180 -113 280 -222 291h-29v-291h-94v725h195c164 0 241 -91 241 -216c0 -108 -55 -175 -151 -203zM445 508c0 69 -41 133 -160 133h-90v-265h84c105 0 166 42 166 132z" />
    <glyph glyph-name="S" unicode="S" horiz-adv-x="584" 
d="M430 575c-28 39 -67 76 -138 76c-77 0 -140 -41 -140 -111c0 -75 74 -98 161 -125c94 -29 220 -69 220 -217c0 -125 -93 -212 -239 -212c-130 0 -218 69 -246 113l48 75c27 -51 99 -104 194 -104c96 0 149 56 149 123c0 69 -53 103 -151 132c-90 26 -227 67 -227 208
c0 111 87 207 230 207c101 0 161 -48 201 -99z" />
    <glyph glyph-name="Scaron" unicode="&#x160;" horiz-adv-x="584" 
d="M445 925l-112 -143h-88l-112 143h64l91 -89l93 89h64zM430 575c-28 39 -67 76 -138 76c-77 0 -140 -41 -140 -111c0 -75 74 -98 161 -125c94 -29 220 -69 220 -217c0 -125 -93 -212 -239 -212c-130 0 -218 69 -246 113l48 75c27 -51 99 -104 194 -104
c96 0 149 56 149 123c0 69 -53 103 -151 132c-90 26 -227 67 -227 208c0 111 87 207 230 207c101 0 161 -48 201 -99z" />
    <glyph glyph-name="T" unicode="T" horiz-adv-x="558" 
d="M528 725v-88h-202v-637h-94v637h-202v88h498z" />
    <glyph glyph-name="U" unicode="U" horiz-adv-x="694" 
d="M510 725h93v-428c0 -211 -74 -312 -249 -312s-253 100 -253 317v423h94v-423c0 -126 19 -231 159 -231s156 106 156 226v428z" />
    <glyph glyph-name="Uacute" unicode="&#xda;" horiz-adv-x="694" 
d="M461 925l-95 -144h-72l74 144h93zM510 725h93v-428c0 -211 -74 -312 -249 -312s-253 100 -253 317v423h94v-423c0 -126 19 -231 159 -231s156 106 156 226v428z" />
    <glyph glyph-name="Ucircumflex" unicode="&#xdb;" horiz-adv-x="694" 
d="M388 925l112 -143h-65l-92 89l-92 -89h-65l113 143h89zM510 725h93v-428c0 -211 -74 -312 -249 -312s-253 100 -253 317v423h94v-423c0 -126 19 -231 159 -231s156 106 156 226v428z" />
    <glyph glyph-name="Udieresis" unicode="&#xdc;" horiz-adv-x="694" 
d="M245 917c28 0 51 -23 51 -51s-23 -51 -51 -51s-51 23 -51 51s23 51 51 51zM441 917c28 0 51 -23 51 -51s-23 -51 -51 -51c-27 0 -51 23 -51 51s24 51 51 51zM510 725h93v-428c0 -211 -74 -312 -249 -312s-253 100 -253 317v423h94v-423c0 -126 19 -231 159 -231
s156 106 156 226v428z" />
    <glyph glyph-name="Ugrave" unicode="&#xd9;" horiz-adv-x="694" 
d="M305 925l73 -129l-61 -15l-90 129zM510 725h93v-428c0 -211 -74 -312 -249 -312s-253 100 -253 317v423h94v-423c0 -126 19 -231 159 -231s156 106 156 226v428z" />
    <glyph glyph-name="V" unicode="V" horiz-adv-x="670" 
d="M565 725h100l-261 -725h-137l-262 725h101l228 -638z" />
    <glyph glyph-name="W" unicode="W" horiz-adv-x="977" 
d="M862 725h100l-220 -725h-129l-121 547l-128 -547h-129l-220 725h101l187 -637l141 637h89h11l128 -636z" />
    <glyph glyph-name="Wacute" unicode="&#x1e82;" horiz-adv-x="977" 
d="M610 925l-95 -144h-72l74 144h93zM862 725h100l-220 -725h-129l-121 547l-128 -547h-129l-220 725h101l187 -637l141 637h89h11l128 -636z" />
    <glyph glyph-name="Wcircumflex" unicode="&#x174;" horiz-adv-x="977" 
d="M492 871l-92 -89h-65l113 143h89l112 -143h-65zM862 725h100l-220 -725h-129l-121 547l-128 -547h-129l-220 725h101l187 -637l141 637h89h11l128 -636z" />
    <glyph glyph-name="Wdieresis" unicode="&#x1e84;" horiz-adv-x="977" 
d="M394 815c-28 0 -51 23 -51 51s23 51 51 51s51 -23 51 -51s-23 -51 -51 -51zM590 815c-27 0 -51 23 -51 51s24 51 51 51c28 0 51 -23 51 -51s-23 -51 -51 -51zM862 725h100l-220 -725h-129l-121 547l-128 -547h-129l-220 725h101l187 -637l141 637h89h11l128 -636z" />
    <glyph glyph-name="Wgrave" unicode="&#x1e80;" horiz-adv-x="977" 
d="M527 796l-61 -15l-90 129l78 15zM862 725h100l-220 -725h-129l-121 547l-128 -547h-129l-220 725h101l187 -637l141 637h89h11l128 -636z" />
    <glyph glyph-name="X" unicode="X" horiz-adv-x="652" 
d="M635 725l-243 -344l243 -381h-109l-201 324l-199 -324h-109l245 381l-245 344h109l199 -283l201 283h109z" />
    <glyph glyph-name="Y" unicode="Y" horiz-adv-x="641" 
d="M630 726l-263 -419v-307h-94v305l-262 421h110l201 -345l198 345h110z" />
    <glyph glyph-name="Yacute" unicode="&#xdd;" horiz-adv-x="641" 
d="M439 925l-95 -144h-72l74 144h93zM630 726l-263 -419v-307h-94v305l-262 421h110l201 -345l198 345h110z" />
    <glyph glyph-name="Ycircumflex" unicode="&#x176;" horiz-adv-x="641" 
d="M321 871l-92 -89h-65l113 143h89l112 -143h-65zM630 726l-263 -419v-307h-94v305l-262 421h110l201 -345l198 345h110z" />
    <glyph glyph-name="Ydieresis" unicode="&#x178;" horiz-adv-x="641" 
d="M224 815c-28 0 -51 23 -51 51s23 51 51 51s51 -23 51 -51s-23 -51 -51 -51zM421 815c-28 0 -51 23 -51 51s23 51 51 51s51 -23 51 -51s-23 -51 -51 -51zM630 726l-263 -419v-307h-94v305l-262 421h110l201 -345l198 345h110z" />
    <glyph glyph-name="Ygrave" unicode="&#x1ef2;" horiz-adv-x="641" 
d="M356 796l-61 -15l-90 129l78 15zM630 726l-263 -419v-307h-94v305l-262 421h110l201 -345l198 345h110z" />
    <glyph glyph-name="Z" unicode="Z" horiz-adv-x="641" 
d="M598 725l-394 -641h395v-84h-558l397 641h-353v84h513z" />
    <glyph glyph-name="Zcaron" unicode="&#x17d;" horiz-adv-x="641" 
d="M464 925l-112 -143h-88l-112 143h64l91 -89l93 89h64zM598 725l-394 -641h395v-84h-558l397 641h-353v84h513z" />
    <glyph glyph-name="Iacute_J.loclNLD" horiz-adv-x="804" 
d="M269 924l-94 -144h-73l74 144h93zM777 924l-94 -144h-73l74 144h93zM195 725v-725h-94v725h94zM610 725h93v-505c0 -180 -97 -235 -212 -235c-82 0 -153 46 -189 113l75 52c17 -45 56 -79 114 -79c76 0 119 38 119 157v497z" />
    <glyph glyph-name="a" unicode="a" horiz-adv-x="579" 
d="M293 567c105 0 205 -44 205 -183v-384h-77l-9 54c-57 -43 -103 -69 -183 -69c-118 0 -179 69 -179 165c0 137 117 181 362 201v30c0 74 -57 102 -126 102c-62 0 -133 -21 -182 -48l-11 81c45 28 124 51 200 51zM138 149c0 -68 44 -88 103 -88c52 0 118 32 171 75v140
c-162 -21 -274 -29 -274 -127z" />
    <glyph glyph-name="aacute" unicode="&#xe1;" horiz-adv-x="579" 
d="M410 750l-95 -144h-72l74 144h93zM293 567c105 0 205 -44 205 -183v-384h-77l-9 54c-57 -43 -103 -69 -183 -69c-118 0 -179 69 -179 165c0 137 117 181 362 201v30c0 74 -57 102 -126 102c-62 0 -133 -21 -182 -48l-11 81c45 28 124 51 200 51zM138 149
c0 -68 44 -88 103 -88c52 0 118 32 171 75v140c-162 -21 -274 -29 -274 -127z" />
    <glyph glyph-name="acircumflex" unicode="&#xe2;" horiz-adv-x="579" 
d="M292 696l-92 -89h-65l113 143h89l112 -143h-65zM293 567c105 0 205 -44 205 -183v-384h-77l-9 54c-57 -43 -103 -69 -183 -69c-118 0 -179 69 -179 165c0 137 117 181 362 201v30c0 74 -57 102 -126 102c-62 0 -133 -21 -182 -48l-11 81c45 28 124 51 200 51zM138 149
c0 -68 44 -88 103 -88c52 0 118 32 171 75v140c-162 -21 -274 -29 -274 -127z" />
    <glyph glyph-name="adieresis" unicode="&#xe4;" horiz-adv-x="579" 
d="M194 640c-28 0 -51 23 -51 51s23 51 51 51s51 -23 51 -51s-23 -51 -51 -51zM390 640c-27 0 -51 23 -51 51s24 51 51 51c28 0 51 -23 51 -51s-23 -51 -51 -51zM293 567c105 0 205 -44 205 -183v-384h-77l-9 54c-57 -43 -103 -69 -183 -69c-118 0 -179 69 -179 165
c0 137 117 181 362 201v30c0 74 -57 102 -126 102c-62 0 -133 -21 -182 -48l-11 81c45 28 124 51 200 51zM138 149c0 -68 44 -88 103 -88c52 0 118 32 171 75v140c-162 -21 -274 -29 -274 -127z" />
    <glyph glyph-name="agrave" unicode="&#xe0;" horiz-adv-x="579" 
d="M327 621l-61 -15l-90 129l78 15zM293 567c105 0 205 -44 205 -183v-384h-77l-9 54c-57 -43 -103 -69 -183 -69c-118 0 -179 69 -179 165c0 137 117 181 362 201v30c0 74 -57 102 -126 102c-62 0 -133 -21 -182 -48l-11 81c45 28 124 51 200 51zM138 149
c0 -68 44 -88 103 -88c52 0 118 32 171 75v140c-162 -21 -274 -29 -274 -127z" />
    <glyph glyph-name="aring" unicode="&#xe5;" horiz-adv-x="579" 
d="M291 619c-59 0 -104 47 -104 106c0 58 46 108 104 108s106 -50 106 -108s-48 -106 -106 -106zM292 788c-32 0 -61 -29 -61 -61c0 -33 28 -63 61 -63c34 0 61 34 61 63c0 32 -29 61 -61 61zM293 567c105 0 205 -44 205 -183v-384h-77l-9 54c-57 -43 -103 -69 -183 -69
c-118 0 -179 69 -179 165c0 137 117 181 362 201v30c0 74 -57 102 -126 102c-62 0 -133 -21 -182 -48l-11 81c45 28 124 51 200 51zM138 149c0 -68 44 -88 103 -88c52 0 118 32 171 75v140c-162 -21 -274 -29 -274 -127z" />
    <glyph glyph-name="atilde" unicode="&#xe3;" horiz-adv-x="579" 
d="M282 637c-45 27 -79 19 -110 -21l-49 48c55 68 122 77 192 25c39 -22 75 -5 96 27l51 -41c-43 -67 -112 -79 -180 -38zM293 567c105 0 205 -44 205 -183v-384h-77l-9 54c-57 -43 -103 -69 -183 -69c-118 0 -179 69 -179 165c0 137 117 181 362 201v30
c0 74 -57 102 -126 102c-62 0 -133 -21 -182 -48l-11 81c45 28 124 51 200 51zM138 149c0 -68 44 -88 103 -88c52 0 118 32 171 75v140c-162 -21 -274 -29 -274 -127z" />
    <glyph glyph-name="ae" unicode="&#xe6;" horiz-adv-x="920" 
d="M645 65c75 0 117 36 145 80l52 -52c-41 -64 -104 -108 -198 -108c-89 0 -158 33 -202 93l-5 -4c-70 -56 -117 -89 -208 -89c-118 0 -179 69 -179 165c0 133 110 178 340 199c4 24 9 47 17 67c-15 48 -64 67 -121 67c-62 0 -133 -21 -182 -48l-11 81c45 28 124 51 200 51
c64 0 132 -17 172 -62c45 43 106 63 170 63c130 0 234 -79 235 -245v-56h-398c2 -130 60 -202 173 -202zM634 486c-89 0 -141 -47 -157 -144h306c-7 100 -66 144 -149 144zM138 149c0 -68 44 -88 103 -88c52 0 117 31 169 74c-16 39 -24 85 -25 137
c-147 -18 -247 -31 -247 -123z" />
    <glyph glyph-name="b" unicode="b" horiz-adv-x="606" 
d="M339 566c132 0 206 -118 206 -299c0 -169 -74 -281 -230 -281c-65 0 -114 39 -141 72l-11 -58h-77v750h87v-271c19 40 78 87 166 87zM312 66c95 0 145 79 145 201c0 135 -50 220 -145 220c-51 0 -109 -32 -131 -99c-4 -14 -7 -38 -7 -53v-110c0 -16 3 -45 6 -59
c12 -58 72 -100 132 -100z" />
    <glyph glyph-name="c" unicode="c" horiz-adv-x="571" 
d="M315 566c119 0 172 -57 198 -105l-50 -65c-21 43 -65 90 -145 90c-71 0 -169 -53 -169 -209c0 -164 97 -211 169 -211c76 0 119 35 143 81l61 -60c-41 -52 -95 -101 -210 -101c-159 0 -251 128 -251 291c0 180 104 289 254 289z" />
    <glyph glyph-name="ccedilla" unicode="&#xe7;" horiz-adv-x="571" 
d="M522 87c-38 -49 -88 -94 -188 -100c2 -14 3 -27 3 -38c0 -98 -59 -140 -142 -140c-26 0 -54 4 -84 12v77c25 -6 49 -10 70 -10c44 0 73 18 73 74c0 9 -1 19 -3 31c-121 28 -190 143 -190 284c0 180 104 289 254 289c119 0 172 -57 198 -105l-50 -65
c-21 43 -65 90 -145 90c-71 0 -169 -53 -169 -209c0 -164 97 -211 169 -211c76 0 119 35 143 81z" />
    <glyph glyph-name="d" unicode="d" horiz-adv-x="606" 
d="M433 750h87v-552v-198h-76l-11 58c-28 -34 -77 -72 -142 -72c-156 0 -230 112 -230 281c0 181 75 299 206 299c89 0 148 -47 166 -88v272zM294 66c61 0 120 42 132 100c3 14 6 43 6 59v110c0 15 -3 39 -7 53c-21 67 -80 99 -131 99c-95 0 -145 -85 -145 -220
c0 -123 50 -201 145 -201z" />
    <glyph glyph-name="eth" unicode="&#xf0;" horiz-adv-x="612" 
d="M380 711c123 -74 151 -229 151 -409c0 -264 -136 -316 -241 -316c-155 0 -229 112 -229 281c0 181 74 290 225 290c70 0 128 -38 137 -57c-2 56 -41 120 -115 160l-100 -71l-35 48l70 49c-35 10 -74 16 -118 16l72 56c46 -1 86 -8 120 -19l76 54l34 -48zM294 66
c59 0 144 43 144 211c0 94 -43 200 -154 200c-85 0 -135 -75 -135 -210c0 -123 50 -201 145 -201z" />
    <glyph glyph-name="e" unicode="e" horiz-adv-x="596" 
d="M320 65c75 0 118 36 146 80l51 -52c-41 -64 -103 -108 -197 -108c-164 0 -260 113 -260 294c0 205 117 287 251 287c130 0 234 -77 234 -255v-44h-397c2 -130 60 -202 172 -202zM310 487c-90 0 -142 -48 -157 -145h311c-8 99 -53 145 -154 145z" />
    <glyph glyph-name="eacute" unicode="&#xe9;" horiz-adv-x="596" 
d="M429 750l-95 -144h-72l74 144h93zM320 65c75 0 118 36 146 80l51 -52c-41 -64 -103 -108 -197 -108c-164 0 -260 113 -260 294c0 205 117 287 251 287c130 0 234 -77 234 -255v-44h-397c2 -130 60 -202 172 -202zM310 487c-90 0 -142 -48 -157 -145h311
c-8 99 -53 145 -154 145z" />
    <glyph glyph-name="ecircumflex" unicode="&#xea;" horiz-adv-x="596" 
d="M310 696l-92 -89h-65l113 143h89l112 -143h-65zM320 65c75 0 118 36 146 80l51 -52c-41 -64 -103 -108 -197 -108c-164 0 -260 113 -260 294c0 205 117 287 251 287c130 0 234 -77 234 -255v-44h-397c2 -130 60 -202 172 -202zM310 487c-90 0 -142 -48 -157 -145h311
c-8 99 -53 145 -154 145z" />
    <glyph glyph-name="edieresis" unicode="&#xeb;" horiz-adv-x="596" 
d="M213 640c-28 0 -51 23 -51 51s23 51 51 51s51 -23 51 -51s-23 -51 -51 -51zM409 640c-27 0 -51 23 -51 51s24 51 51 51c28 0 51 -23 51 -51s-23 -51 -51 -51zM320 65c75 0 118 36 146 80l51 -52c-41 -64 -103 -108 -197 -108c-164 0 -260 113 -260 294
c0 205 117 287 251 287c130 0 234 -77 234 -255v-44h-397c2 -130 60 -202 172 -202zM310 487c-90 0 -142 -48 -157 -145h311c-8 99 -53 145 -154 145z" />
    <glyph glyph-name="egrave" unicode="&#xe8;" horiz-adv-x="596" 
d="M346 621l-61 -15l-90 129l78 15zM320 65c75 0 118 36 146 80l51 -52c-41 -64 -103 -108 -197 -108c-164 0 -260 113 -260 294c0 205 117 287 251 287c130 0 234 -77 234 -255v-44h-397c2 -130 60 -202 172 -202zM310 487c-90 0 -142 -48 -157 -145h311
c-8 99 -53 145 -154 145z" />
    <glyph glyph-name="f" unicode="f" horiz-adv-x="371" 
d="M289 670c-70 0 -85 -33 -85 -120h104v-76h-104v-474h-88v474h-75v76h75c-1 138 45 201 162 201c23 0 48 -3 76 -7l-14 -78c-20 3 -36 4 -51 4z" />
    <glyph glyph-name="g" unicode="g" horiz-adv-x="602" 
d="M445 550h76v-382v-184c0 -143 -95 -212 -234 -212c-59 0 -110 14 -149 39l57 69c21 -14 51 -26 87 -26c98 0 151 37 151 130v72c-20 -40 -79 -72 -155 -72c-142 0 -217 118 -217 299c0 169 75 281 231 281c65 0 115 -39 142 -73zM433 215v110c0 16 -3 45 -6 59
c-12 58 -72 101 -133 101c-95 0 -145 -79 -145 -202c0 -135 50 -220 145 -220c52 0 110 31 132 99c4 14 7 38 7 53z" />
    <glyph glyph-name="h" unicode="h" horiz-adv-x="605" 
d="M352 564c118 0 172 -76 172 -223v-341h-88v342c0 86 -29 134 -110 134c-54 0 -101 -22 -147 -52v-424h-88v750h88v-248c53 36 105 62 173 62z" />
    <glyph glyph-name="i" unicode="i" horiz-adv-x="279" 
d="M142 742c28 0 51 -23 51 -51s-23 -51 -51 -51s-51 23 -51 51s23 51 51 51zM186 0h-88v550h88v-550z" />
    <glyph glyph-name="iacute" unicode="&#xed;" horiz-adv-x="265" 
d="M261 750l-94 -144h-73l74 144h93zM179 550v-550h-88v550h88z" />
    <glyph glyph-name="icircumflex" unicode="&#xee;" horiz-adv-x="265" 
d="M177 750l112 -143h-62l-95 89l-94 -89h-62l112 143h89zM179 550v-550h-88v550h88z" />
    <glyph glyph-name="idieresis" unicode="&#xef;" horiz-adv-x="265" 
d="M31 743c28 0 51 -23 51 -51s-23 -51 -51 -51s-51 23 -51 51s23 51 51 51zM227 743c28 0 51 -23 51 -51s-23 -51 -51 -51s-51 23 -51 51s23 51 51 51zM179 550v-550h-88v550h88z" />
    <glyph glyph-name="igrave" unicode="&#xec;" horiz-adv-x="265" 
d="M99 750l74 -144h-73l-94 144h93zM179 550v-550h-88v550h88z" />
    <glyph glyph-name="j" unicode="j" horiz-adv-x="288" 
d="M155 743c28 0 51 -23 51 -51s-23 -51 -51 -51s-51 23 -51 51s23 51 51 51zM9 -104c48 2 101 24 101 157v497h88v-492c0 -203 -73 -241 -189 -246v84z" />
    <glyph glyph-name="k" unicode="k" horiz-adv-x="523" 
d="M413 0l-164 270l-70 -92v-178h-88v750h88v-443l179 243h104l-155 -203l205 -347h-99z" />
    <glyph glyph-name="l" unicode="l" horiz-adv-x="275" 
d="M179 94c0 -25 10 -34 22 -34c5 0 9 0 17 2l12 -69c-11 -5 -24 -8 -46 -8c-68 0 -93 36 -93 105v660h88v-656z" />
    <glyph glyph-name="ldot" unicode="&#x140;" horiz-adv-x="344" 
d="M179 94c0 -25 10 -34 22 -34c5 0 9 0 17 2l12 -69c-11 -5 -24 -8 -46 -8c-68 0 -93 36 -93 105v660h88v-656zM305 430c36 0 68 -32 68 -68c0 -38 -30 -67 -68 -67c-39 0 -67 28 -67 67c0 38 29 68 67 68z" />
    <glyph glyph-name="lslash" unicode="&#x142;" horiz-adv-x="319" 
d="M314 479l-121 -117v-268c0 -25 11 -34 22 -34c5 0 9 0 18 2l11 -69c-10 -5 -24 -8 -45 -8c-68 0 -93 36 -94 105v187l-100 -99v101l100 99v372h88v-286l121 118v-103z" />
    <glyph glyph-name="m" unicode="m" horiz-adv-x="940" 
d="M687 564c119 0 172 -76 172 -223v-341h-88v342c0 86 -29 134 -110 134c-56 0 -103 -23 -151 -54c5 -24 7 -51 7 -81v-341h-88v342c0 86 -28 134 -110 134c-53 0 -99 -21 -145 -50v-426h-88v550h88v-47c53 36 104 61 171 61c71 0 118 -27 145 -79c62 45 119 79 197 79z
" />
    <glyph glyph-name="n" unicode="n" horiz-adv-x="598" 
d="M345 566c119 0 172 -78 172 -225v-341h-88v342c0 86 -28 135 -110 135c-53 0 -99 -22 -145 -51v-426h-88v550h88v-46c53 36 104 62 171 62z" />
    <glyph glyph-name="ntilde" unicode="&#xf1;" horiz-adv-x="598" 
d="M299 634c-45 27 -79 19 -110 -21l-49 48c55 68 122 77 192 25c39 -22 75 -5 96 27l51 -41c-43 -67 -112 -79 -180 -38zM345 566c119 0 172 -78 172 -225v-341h-88v342c0 86 -28 135 -110 135c-53 0 -99 -22 -145 -51v-426h-88v550h88v-46c53 36 104 62 171 62z" />
    <glyph glyph-name="o" unicode="o" horiz-adv-x="629" 
d="M310 566c167 0 258 -113 258 -292c0 -168 -90 -289 -256 -289c-174 0 -251 144 -251 289c0 182 100 292 249 292zM309 481c-91 0 -156 -58 -156 -207c0 -140 64 -203 159 -203c98 0 164 76 164 203c0 152 -66 207 -167 207z" />
    <glyph glyph-name="oacute" unicode="&#xf3;" horiz-adv-x="629" 
d="M430 750l-95 -144h-72l74 144h93zM310 566c167 0 258 -113 258 -292c0 -168 -90 -289 -256 -289c-174 0 -251 144 -251 289c0 182 100 292 249 292zM309 481c-91 0 -156 -58 -156 -207c0 -140 64 -203 159 -203c98 0 164 76 164 203c0 152 -66 207 -167 207z" />
    <glyph glyph-name="ocircumflex" unicode="&#xf4;" horiz-adv-x="629" 
d="M357 750l112 -143h-65l-92 89l-92 -89h-65l113 143h89zM310 566c167 0 258 -113 258 -292c0 -168 -90 -289 -256 -289c-174 0 -251 144 -251 289c0 182 100 292 249 292zM309 481c-91 0 -156 -58 -156 -207c0 -140 64 -203 159 -203c98 0 164 76 164 203
c0 152 -66 207 -167 207z" />
    <glyph glyph-name="odieresis" unicode="&#xf6;" horiz-adv-x="629" 
d="M214 742c28 0 51 -23 51 -51s-23 -51 -51 -51s-51 23 -51 51s23 51 51 51zM410 742c28 0 51 -23 51 -51s-23 -51 -51 -51c-27 0 -51 23 -51 51s24 51 51 51zM310 566c167 0 258 -113 258 -292c0 -168 -90 -289 -256 -289c-174 0 -251 144 -251 289c0 182 100 292 249 292
zM309 481c-91 0 -156 -58 -156 -207c0 -140 64 -203 159 -203c98 0 164 76 164 203c0 152 -66 207 -167 207z" />
    <glyph glyph-name="ograve" unicode="&#xf2;" horiz-adv-x="629" 
d="M274 750l73 -129l-61 -15l-90 129zM310 566c167 0 258 -113 258 -292c0 -168 -90 -289 -256 -289c-174 0 -251 144 -251 289c0 182 100 292 249 292zM309 481c-91 0 -156 -58 -156 -207c0 -140 64 -203 159 -203c98 0 164 76 164 203c0 152 -66 207 -167 207z" />
    <glyph glyph-name="oslash" unicode="&#xf8;" horiz-adv-x="630" 
d="M597 520l-69 -69c27 -47 41 -107 41 -177c0 -168 -90 -287 -256 -287c-77 0 -135 27 -176 71l-63 -64l-39 45l67 67c-27 49 -40 108 -40 168c0 182 99 292 248 292c78 0 139 -24 182 -67l63 63zM154 274c0 -40 5 -73 14 -101l262 263c-29 32 -70 45 -120 45
c-91 0 -156 -58 -156 -207zM477 274c0 44 -6 80 -16 109l-263 -264c28 -33 67 -48 115 -48c98 0 164 76 164 203z" />
    <glyph glyph-name="otilde" unicode="&#xf5;" horiz-adv-x="629" 
d="M431 716l51 -41c-43 -67 -112 -79 -180 -38c-45 27 -79 19 -110 -21l-49 48c55 68 122 77 192 25c39 -22 75 -5 96 27zM310 566c167 0 258 -113 258 -292c0 -168 -90 -289 -256 -289c-174 0 -251 144 -251 289c0 182 100 292 249 292zM309 481c-91 0 -156 -58 -156 -207
c0 -140 64 -203 159 -203c98 0 164 76 164 203c0 152 -66 207 -167 207z" />
    <glyph glyph-name="oe" unicode="&#x153;" horiz-adv-x="1013" 
d="M738 65c75 0 117 36 145 80l52 -52c-41 -64 -104 -108 -197 -108c-99 0 -174 41 -217 114c-40 -71 -110 -114 -209 -114c-174 0 -251 144 -251 289c0 182 100 292 249 292c99 0 169 -40 210 -109c45 77 123 111 208 111c131 0 235 -79 235 -245v-56h-398
c2 -130 60 -202 173 -202zM727 486c-89 0 -141 -47 -157 -144h306c-7 100 -66 144 -149 144zM312 71c98 0 164 76 164 203c0 152 -66 211 -167 211c-91 0 -156 -62 -156 -211c0 -140 64 -203 159 -203z" />
    <glyph glyph-name="p" unicode="p" horiz-adv-x="611" 
d="M320 564c156 0 230 -112 230 -281c0 -181 -75 -298 -216 -298c-79 0 -127 25 -156 59v-244h-87v552v198h76l11 -59c27 34 76 73 142 73zM317 64c95 0 145 84 145 219c0 123 -50 202 -145 202c-61 0 -120 -43 -132 -101c-3 -14 -6 -43 -6 -59v-121c0 -15 3 -39 7 -53
c21 -67 80 -87 131 -87z" />
    <glyph glyph-name="thorn" unicode="&#xfe;" horiz-adv-x="611" 
d="M320 564c156 0 230 -112 230 -281c0 -181 -75 -299 -215 -299c-80 0 -128 24 -157 59v-243h-87v552v372h87v-233c27 34 76 73 142 73zM317 63c95 0 145 85 145 220c0 123 -50 202 -145 202c-61 0 -120 -43 -132 -101c-4 -14 -7 -43 -7 -59v-122c0 -15 3 -39 8 -53
c21 -67 80 -87 131 -87z" />
    <glyph glyph-name="q" unicode="q" horiz-adv-x="606" 
d="M444 550h76v-382v-368h-87v269c-20 -40 -77 -85 -164 -85c-133 0 -208 118 -208 299c0 169 74 281 230 281c66 0 115 -39 142 -73zM433 214v111c0 16 -3 45 -6 59c-13 58 -72 101 -132 101c-96 0 -146 -79 -146 -202c0 -135 50 -220 145 -220c51 0 110 31 132 98
c4 14 7 38 7 53z" />
    <glyph glyph-name="r" unicode="r" horiz-adv-x="367" 
d="M326 561c10 0 20 -1 31 -2v-81c-8 2 -16 2 -24 2c-65 0 -136 -51 -155 -128c-4 -17 -4 -41 -4 -44v-308h-88v550h88v-88c36 64 82 99 152 99z" />
    <glyph glyph-name="s" unicode="s" horiz-adv-x="450" 
d="M387 507l-41 -70c-29 35 -72 50 -111 50c-51 0 -98 -28 -98 -85c0 -117 293 -71 293 -253c0 -112 -96 -164 -195 -164c-78 0 -159 34 -197 96l43 68c36 -64 101 -88 154 -88c62 0 110 30 110 71c0 69 -60 75 -138 104c-74 28 -159 73 -159 171c0 105 91 159 185 159
c57 0 114 -19 154 -59z" />
    <glyph glyph-name="scaron" unicode="&#x161;" horiz-adv-x="450" 
d="M389 750l-112 -143h-88l-112 143h64l91 -89l93 89h64zM387 507l-41 -70c-29 35 -72 50 -111 50c-51 0 -98 -28 -98 -85c0 -117 293 -71 293 -253c0 -112 -96 -164 -195 -164c-78 0 -159 34 -197 96l43 68c36 -64 101 -88 154 -88c62 0 110 30 110 71
c0 69 -60 75 -138 104c-74 28 -159 73 -159 171c0 105 91 159 185 159c57 0 114 -19 154 -59z" />
    <glyph glyph-name="germandbls" unicode="&#xdf;" horiz-adv-x="673" 
d="M93 0v553c0 129 66 203 226 203c151 0 241 -84 241 -208c0 -79 -61 -139 -131 -156c83 -11 163 -78 163 -213c0 -113 -92 -193 -222 -193c-25 0 -51 3 -78 9v90c20 -5 41 -8 61 -8c79 0 144 41 144 118c0 95 -83 140 -204 146v89c79 5 178 27 178 115
c0 70 -51 126 -149 126c-113 0 -141 -38 -141 -118v-553h-88z" />
    <glyph glyph-name="t" unicode="t" horiz-adv-x="385" 
d="M355 474h-133v-324c0 -63 12 -82 43 -82c23 0 50 6 66 13l22 -73c-41 -16 -82 -23 -108 -23c-74 0 -111 48 -111 130v359h-114v76h114v115h88v-115h133v-76z" />
    <glyph glyph-name="u" unicode="u" horiz-adv-x="593" 
d="M424 550h88v-550h-88v53c-62 -44 -113 -67 -166 -67c-123 0 -177 73 -177 223v341h88v-342c0 -86 29 -134 113 -134c43 0 87 19 142 56v420z" />
    <glyph glyph-name="uacute" unicode="&#xfa;" horiz-adv-x="593" 
d="M411 750l-95 -144h-72l74 144h93zM424 550h88v-550h-88v53c-62 -44 -113 -67 -166 -67c-123 0 -177 73 -177 223v341h88v-342c0 -86 29 -134 113 -134c43 0 87 19 142 56v420z" />
    <glyph glyph-name="ucircumflex" unicode="&#xfb;" horiz-adv-x="593" 
d="M292 696l-92 -89h-65l113 143h89l112 -143h-65zM424 550h88v-550h-88v53c-62 -44 -113 -67 -166 -67c-123 0 -177 73 -177 223v341h88v-342c0 -86 29 -134 113 -134c43 0 87 19 142 56v420z" />
    <glyph glyph-name="udieresis" unicode="&#xfc;" horiz-adv-x="593" 
d="M195 640c-28 0 -51 23 -51 51s23 51 51 51s51 -23 51 -51s-23 -51 -51 -51zM391 640c-27 0 -51 23 -51 51s24 51 51 51c28 0 51 -23 51 -51s-23 -51 -51 -51zM424 550h88v-550h-88v53c-62 -44 -113 -67 -166 -67c-123 0 -177 73 -177 223v341h88v-342
c0 -86 29 -134 113 -134c43 0 87 19 142 56v420z" />
    <glyph glyph-name="ugrave" unicode="&#xf9;" horiz-adv-x="593" 
d="M328 621l-61 -15l-90 129l78 15zM424 550h88v-550h-88v53c-62 -44 -113 -67 -166 -67c-123 0 -177 73 -177 223v341h88v-342c0 -86 29 -134 113 -134c43 0 87 19 142 56v420z" />
    <glyph glyph-name="v" unicode="v" horiz-adv-x="528" 
d="M429 550h94l-204 -550h-110l-203 550h93l163 -464z" />
    <glyph glyph-name="w" unicode="w" horiz-adv-x="807" 
d="M709 550h93l-184 -550h-99l-115 430l-115 -430h-100l-184 550h93l144 -463l126 463h71l125 -463z" />
    <glyph glyph-name="wacute" unicode="&#x1e83;" horiz-adv-x="807" 
d="M520 750l-95 -144h-72l74 144h93zM709 550h93l-184 -550h-99l-115 430l-115 -430h-100l-184 550h93l144 -463l126 463h71l125 -463z" />
    <glyph glyph-name="wcircumflex" unicode="&#x175;" horiz-adv-x="807" 
d="M401 696l-92 -89h-65l113 143h89l112 -143h-65zM709 550h93l-184 -550h-99l-115 430l-115 -430h-100l-184 550h93l144 -463l126 463h71l125 -463z" />
    <glyph glyph-name="wdieresis" unicode="&#x1e85;" horiz-adv-x="807" 
d="M304 640c-28 0 -51 23 -51 51s23 51 51 51s51 -23 51 -51s-23 -51 -51 -51zM500 640c-27 0 -51 23 -51 51s24 51 51 51c28 0 51 -23 51 -51s-23 -51 -51 -51zM709 550h93l-184 -550h-99l-115 430l-115 -430h-100l-184 550h93l144 -463l126 463h71l125 -463z" />
    <glyph glyph-name="wgrave" unicode="&#x1e81;" horiz-adv-x="807" 
d="M437 621l-61 -15l-90 129l78 15zM709 550h93l-184 -550h-99l-115 430l-115 -430h-100l-184 550h93l144 -463l126 463h71l125 -463z" />
    <glyph glyph-name="x" unicode="x" horiz-adv-x="565" 
d="M549 550l-208 -273l200 -277h-115l-145 208l-155 -208h-109l211 273l-199 277h113l145 -209l156 209h106z" />
    <glyph glyph-name="y" unicode="y" horiz-adv-x="528" 
d="M428 550h95l-278 -750h-90l68 194l-217 556h94l167 -439z" />
    <glyph glyph-name="yacute" unicode="&#xfd;" horiz-adv-x="528" 
d="M385 750l-95 -144h-72l74 144h93zM428 550h95l-278 -750h-90l68 194l-217 556h94l167 -439z" />
    <glyph glyph-name="ycircumflex" unicode="&#x177;" horiz-adv-x="528" 
d="M266 696l-92 -89h-65l113 143h89l112 -143h-65zM428 550h95l-278 -750h-90l68 194l-217 556h94l167 -439z" />
    <glyph glyph-name="ydieresis" unicode="&#xff;" horiz-adv-x="528" 
d="M169 640c-28 0 -51 23 -51 51s23 51 51 51s51 -23 51 -51s-23 -51 -51 -51zM365 640c-27 0 -51 23 -51 51s24 51 51 51c28 0 51 -23 51 -51s-23 -51 -51 -51zM428 550h95l-278 -750h-90l68 194l-217 556h94l167 -439z" />
    <glyph glyph-name="ygrave" unicode="&#x1ef3;" horiz-adv-x="528" 
d="M302 621l-61 -15l-90 129l78 15zM428 550h95l-278 -750h-90l68 194l-217 556h94l167 -439z" />
    <glyph glyph-name="z" unicode="z" horiz-adv-x="530" 
d="M193 79h296v-79h-448l290 471h-256v79h408z" />
    <glyph glyph-name="zcaron" unicode="&#x17e;" horiz-adv-x="530" 
d="M313 607h-88l-112 143h64l91 -89l93 89h64zM193 79h296v-79h-448l290 471h-256v79h408z" />
    <glyph glyph-name="iacute_j.loclNLD" horiz-adv-x="530" 
d="M230 750l-95 -144h-72l73 144h94zM508 750l-95 -144h-72l73 144h94zM148 550v-550h-88v550h88zM237 -104c48 2 102 24 102 157v497h88v-492c0 -203 -73 -241 -190 -246v84z" />
    <glyph glyph-name="c_h" horiz-adv-x="1117" 
d="M857 559c123 0 179 -77 179 -206v-353h-88v352c0 86 -31 124 -115 124c-45 0 -90 -20 -142 -57v-148c0 -201 -105 -285 -323 -285c-201 0 -307 116 -307 291c0 180 104 289 254 289c119 0 172 -57 198 -105l-50 -65c-21 43 -65 90 -145 90c-71 0 -169 -53 -169 -209
c0 -160 106 -210 223 -210c155 0 231 47 231 207v476h88v-254c59 43 111 63 166 63z" />
    <glyph glyph-name="c_t" horiz-adv-x="955" 
d="M925 474h-132v-324c0 -63 11 -82 42 -82c24 0 51 6 67 13l21 -73c-40 -16 -81 -23 -108 -23c-73 0 -110 48 -110 130v359h-115v76h115v9c0 75 -54 107 -105 107c-59 0 -129 -28 -135 -146c22 -18 37 -39 48 -59l-50 -65c-21 43 -65 90 -145 90c-71 0 -169 -53 -169 -209
c0 -164 97 -211 169 -211c76 0 119 35 143 81l61 -60c-41 -52 -95 -101 -210 -101c-159 0 -251 128 -251 291c0 180 104 289 254 289c31 0 57 -4 80 -10c20 150 131 184 205 184c106 0 193 -62 193 -173v-17h132v-76z" />
    <glyph glyph-name="f_t" horiz-adv-x="650" 
d="M619 474h-133v-321c0 -63 11 -82 42 -82c23 0 51 6 67 12l21 -72c-40 -16 -81 -23 -108 -23c-73 0 -110 48 -110 130v356h-194v-474h-88v474h-75v76h75c-1 138 45 201 162 201c23 0 48 -3 76 -7l-14 -78c-20 3 -36 4 -51 4c-70 0 -85 -33 -85 -120h194v85h88v-85h133v-76
z" />
    <glyph glyph-name="l_h" horiz-adv-x="856" 
d="M596 559c123 0 179 -77 179 -206v-353h-88v352c0 86 -31 124 -115 124c-45 0 -91 -20 -142 -56v-269c0 -131 -77 -166 -170 -166c-111 0 -169 56 -169 170v595h88v-594c0 -60 41 -91 84 -91c41 0 79 28 79 86v599h88v-253c58 41 111 62 166 62z" />
    <glyph glyph-name="n_h" horiz-adv-x="1176" 
d="M916 559c124 0 179 -77 179 -206v-353h-88v352c0 86 -31 124 -115 124c-46 0 -92 -21 -142 -55v-270c0 -131 -86 -167 -161 -166c-80 1 -160 39 -160 171v186c0 86 -29 134 -113 134c-46 0 -92 -21 -142 -55v-421h-88v550h88v-51c57 39 110 65 166 65
c123 0 177 -73 177 -223v-185c0 -62 37 -93 74 -93s71 31 71 88v599h88v-252c57 40 110 61 166 61z" />
    <glyph glyph-name="s_t" horiz-adv-x="865" 
d="M825 474h-133v-324c0 -63 11 -82 42 -82c24 0 51 6 67 13l22 -73c-41 -16 -82 -23 -109 -23c-73 0 -110 48 -110 130v359h-115v76h115v9c0 76 -62 108 -110 108c-51 -1 -122 -28 -129 -141c8 -6 15 -12 22 -19l-41 -70c-29 35 -72 50 -111 50c-51 0 -98 -28 -98 -85
c0 -117 293 -71 293 -253c0 -112 -96 -164 -195 -164c-78 0 -159 34 -197 96l43 68c36 -64 101 -88 154 -88c62 0 110 30 110 71c0 69 -60 75 -138 104c-74 28 -159 73 -159 171c0 105 91 159 185 159c21 0 42 -2 62 -8c21 149 133 182 199 182c105 0 198 -62 198 -173v-17
h133v-76z" />
    <glyph glyph-name="i_n.001" horiz-adv-x="856" 
d="M141 640c-28 0 -51 23 -51 51s23 51 51 51s51 -23 51 -51s-23 -51 -51 -51zM595 559c124 0 179 -77 179 -206v-353h-88v352c0 86 -30 124 -114 124c-46 0 -91 -20 -143 -56v-269c0 -131 -77 -166 -169 -166c-93 0 -169 38 -170 170v395h88v-394c0 -61 43 -91 85 -91
c40 0 78 27 78 86v399h88v-53c59 41 112 62 166 62z" />
    <glyph glyph-name="A.sc" horiz-adv-x="563" 
d="M463 0l-69 194h-227l-68 -194h-94l213 595h126l214 -595h-95zM196 277h168l-84 236h-2z" />
    <glyph glyph-name="Aacute.sc" horiz-adv-x="563" 
d="M375 750l-70 -107h-72l49 107h93zM463 0l-69 194h-227l-68 -194h-94l213 595h126l214 -595h-95zM196 277h168l-84 236h-2z" />
    <glyph glyph-name="Acircumflex.sc" horiz-adv-x="563" 
d="M276 706l-46 -63h-71l81 107h73l81 -107h-71zM463 0l-69 194h-227l-68 -194h-94l213 595h126l214 -595h-95zM196 277h168l-84 236h-2z" />
    <glyph glyph-name="Adieresis.sc" horiz-adv-x="563" 
d="M189 639c-28 0 -52 24 -52 52s24 52 52 52s52 -24 52 -52s-24 -52 -52 -52zM367 639c-29 0 -52 24 -52 52s23 52 52 52c28 0 52 -24 52 -52s-24 -52 -52 -52zM463 0l-69 194h-227l-68 -194h-94l213 595h126l214 -595h-95zM196 277h168l-84 236h-2z" />
    <glyph glyph-name="Agrave.sc" horiz-adv-x="563" 
d="M316 643h-73l-70 107h94zM463 0l-69 194h-227l-68 -194h-94l213 595h126l214 -595h-95zM196 277h168l-84 236h-2z" />
    <glyph glyph-name="Aring.sc" horiz-adv-x="563" 
d="M279 631c-50 0 -85 37 -85 86c0 48 36 89 85 89c47 0 86 -41 86 -89s-39 -86 -86 -86zM279 769c-26 0 -50 -24 -50 -50c0 -27 23 -52 50 -52c28 0 50 28 50 52c0 26 -23 50 -50 50zM463 0l-69 194h-227l-68 -194h-94l213 595h126l214 -595h-95zM196 277h168l-84 236h-2z
" />
    <glyph glyph-name="Atilde.sc" horiz-adv-x="563" 
d="M277 653c-37 23 -65 17 -90 -17l-41 40c46 55 101 63 158 20c32 -17 62 -4 79 23l42 -34c-36 -55 -93 -65 -148 -32zM463 0l-69 194h-227l-68 -194h-94l213 595h126l214 -595h-95zM196 277h168l-84 236h-2z" />
    <glyph glyph-name="AE.sc" horiz-adv-x="692" 
d="M654 513h-247v-162h203v-82h-203v-187h247v-82h-340v193h-143l-63 -193h-104l209 595h123h318v-82zM197 274h117v231h-41z" />
    <glyph glyph-name="B.sc" horiz-adv-x="504" 
d="M377 310c50 -22 88 -65 88 -141c0 -99 -62 -169 -201 -169h-185v595h150c140 0 202 -62 202 -161c0 -58 -21 -99 -54 -124zM338 428c0 60 -37 90 -121 90h-44v-181h65c59 0 100 27 100 91zM252 76c79 0 120 27 120 91c0 70 -47 95 -124 95h-75v-186h79z" />
    <glyph glyph-name="C.sc" horiz-adv-x="583" 
d="M549 103c-49 -71 -106 -118 -223 -118c-169 0 -265 143 -265 314c0 170 96 310 265 310c110 0 173 -47 218 -122l-64 -46c-27 58 -88 82 -154 82c-120 0 -169 -107 -169 -225c0 -119 49 -227 169 -227c76 0 127 25 156 81z" />
    <glyph glyph-name="Ccedilla.sc" horiz-adv-x="583" 
d="M544 106c-38 -63 -84 -103 -168 -114v-13c0 -87 -52 -124 -127 -124c-23 0 -48 3 -75 10v69c22 -5 44 -9 63 -9c39 0 64 16 65 65c-154 12 -241 146 -241 309c0 170 96 310 265 310c110 0 173 -47 216 -125l-62 -43c-27 58 -88 82 -154 82c-120 0 -169 -107 -169 -225
c0 -119 49 -224 169 -224c76 0 127 22 156 78z" />
    <glyph glyph-name="D.sc" horiz-adv-x="597" 
d="M279 595c172 0 257 -127 257 -297c0 -171 -80 -298 -257 -298h-172h-27v595h91h108zM263 81c136 0 180 86 180 216c0 129 -48 217 -180 217h-92v-433h92z" />
    <glyph glyph-name="Eth.sc" horiz-adv-x="620" 
d="M294 595c171 0 266 -127 266 -297c0 -171 -91 -298 -266 -298h-202v282h-71v79h71v234h202zM293 81c119 0 171 85 171 216c0 128 -54 216 -171 216h-107v-152h126v-79h-126v-201h107z" />
    <glyph glyph-name="E.sc" horiz-adv-x="439" 
d="M399 514h-228v-176h184v-81h-184v-176h228v-81h-319v595h319v-81z" />
    <glyph glyph-name="Eacute.sc" horiz-adv-x="440" 
d="M346 750l-70 -107h-73l49 107h94zM399 514h-228v-176h184v-81h-184v-176h228v-81h-319v595h319v-81z" />
    <glyph glyph-name="Ecircumflex.sc" horiz-adv-x="440" 
d="M239 706l-46 -63h-72l82 107h72l82 -107h-72zM399 514h-228v-176h184v-81h-184v-176h228v-81h-319v595h319v-81z" />
    <glyph glyph-name="Edieresis.sc" horiz-adv-x="440" 
d="M148 639c-28 0 -51 24 -51 52s23 52 51 52c29 0 52 -24 52 -52s-23 -52 -52 -52zM326 639c-28 0 -52 24 -52 52s24 52 52 52c29 0 52 -24 52 -52s-23 -52 -52 -52zM399 514h-228v-176h184v-81h-184v-176h228v-81h-319v595h319v-81z" />
    <glyph glyph-name="Egrave.sc" horiz-adv-x="440" 
d="M286 643h-73l-70 107h93zM399 514h-228v-176h184v-81h-184v-176h228v-81h-319v595h319v-81z" />
    <glyph glyph-name="F.sc" horiz-adv-x="435" 
d="M399 514h-228v-175h184v-81h-184v-258h-91v595h319v-81z" />
    <glyph glyph-name="G.sc" horiz-adv-x="626" 
d="M342 288h213v-288h-61l-11 48c-33 -39 -83 -59 -157 -59c-169 0 -265 139 -265 310c0 170 96 310 265 310c110 0 173 -47 216 -125l-62 -43c-27 58 -88 83 -154 83c-120 0 -169 -108 -169 -226c0 -119 49 -225 169 -225c76 0 133 27 141 135v5h-125v75z" />
    <glyph glyph-name="H.sc" horiz-adv-x="598" 
d="M426 595h91v-595h-91v258h-254v-258h-91v595h91v-256h254v256z" />
    <glyph glyph-name="I.sc" horiz-adv-x="253" 
d="M172 595v-595h-91v595h91z" />
    <glyph glyph-name="Iacute.sc" horiz-adv-x="253" 
d="M136 750h94l-70 -107h-73zM172 595v-595h-91v595h91z" />
    <glyph glyph-name="Icircumflex.sc" horiz-adv-x="253" 
d="M163 750l82 -107h-72l-46 63l-46 -63h-72l82 107h72zM173 595v-595h-91v595h91z" />
    <glyph glyph-name="Idieresis.sc" horiz-adv-x="253" 
d="M37 743c28 0 52 -24 52 -52s-24 -52 -52 -52s-52 24 -52 52s24 52 52 52zM215 743c28 0 52 -24 52 -52s-24 -52 -52 -52c-29 0 -52 24 -52 52s23 52 52 52zM172 595v-595h-91v595h91z" />
    <glyph glyph-name="Igrave.sc" horiz-adv-x="253" 
d="M117 750l50 -107h-73l-70 107h93zM172 595v-595h-91v595h91z" />
    <glyph glyph-name="J.sc" horiz-adv-x="432" 
d="M258 595h93v-393c0 -163 -80 -217 -175 -217c-82 0 -140 43 -176 113l72 52c17 -46 56 -79 95 -79c66 0 91 37 91 139v385z" />
    <glyph glyph-name="K.sc" horiz-adv-x="514" 
d="M407 -1l-169 264l-66 -87v-177h-91v596h91v-286l210 286h107l-192 -253l212 -343h-102z" />
    <glyph glyph-name="L.sc" horiz-adv-x="408" 
d="M171 595v-513h221v-82h-312v595h91z" />
    <glyph glyph-name="Ldot.sc" horiz-adv-x="413" 
d="M173 595v-514h225v-81h-319v595h94zM334 363c33 0 62 -29 62 -62c0 -35 -28 -62 -62 -62c-35 0 -62 27 -62 62c0 34 27 62 62 62z" />
    <glyph glyph-name="Lslash.sc" horiz-adv-x="433" 
d="M190 81h232v-81h-326v200l-64 -62v92l64 62v303h94v-211l88 86v-93l-88 -86v-210z" />
    <glyph glyph-name="M.sc" horiz-adv-x="712" 
d="M631 595v-595h-91v449l-146 -449h-96l-137 447v-447h-91v595h91h43l143 -506l155 506h129z" />
    <glyph glyph-name="N.sc" horiz-adv-x="588" 
d="M426 595h91v-595h-91h-34l-231 512v-512h-91v595h91h53l212 -488v488z" />
    <glyph glyph-name="Ntilde.sc" horiz-adv-x="589" 
d="M284 669c-36 22 -65 16 -90 -17l-40 39c45 56 100 63 157 21c32 -18 62 -4 79 22l42 -33c-36 -55 -92 -65 -148 -32zM427 595h91v-595h-91h-34l-231 512v-512h-91v595h91h52l213 -488v488z" />
    <glyph glyph-name="O.sc" horiz-adv-x="634" 
d="M317 -10c-170 0 -257 139 -257 310c0 170 87 310 257 310s258 -140 258 -310c0 -171 -88 -310 -258 -310zM317 79c122 0 165 100 165 220c0 118 -43 222 -165 222c-121 0 -164 -104 -164 -222c0 -120 43 -220 164 -220z" />
    <glyph glyph-name="Oacute.sc" horiz-adv-x="636" 
d="M310 750h93l-70 -107h-73zM318 -10c-170 0 -257 139 -257 310c0 170 87 310 257 310s256 -140 256 -310c0 -171 -86 -310 -256 -310zM318 80c121 0 164 100 164 219c0 117 -43 221 -164 221s-164 -104 -164 -221c0 -119 43 -219 164 -219z" />
    <glyph glyph-name="Ocircumflex.sc" horiz-adv-x="636" 
d="M354 750l81 -107h-71l-47 63l-46 -63h-71l81 107h73zM318 -10c-170 0 -258 139 -258 310c0 170 88 310 258 310s257 -140 257 -310c0 -171 -87 -310 -257 -310zM318 79c122 0 164 100 164 220c0 118 -42 222 -164 222c-121 0 -165 -104 -165 -222
c0 -120 44 -220 165 -220z" />
    <glyph glyph-name="Odieresis.sc" horiz-adv-x="636" 
d="M228 743c28 0 51 -24 51 -52s-23 -52 -51 -52c-29 0 -54 24 -54 52s25 52 54 52zM405 743c29 0 52 -24 52 -52s-23 -52 -52 -52c-28 0 -51 24 -51 52s23 52 51 52zM318 -10c-170 0 -258 139 -258 310c0 170 88 310 258 310s257 -140 257 -310c0 -171 -87 -310 -257 -310z
M318 79c122 0 164 100 164 220c0 118 -42 222 -164 222c-121 0 -165 -104 -165 -222c0 -120 44 -220 165 -220z" />
    <glyph glyph-name="Ograve.sc" horiz-adv-x="636" 
d="M312 750l49 -107h-73l-70 107h94zM318 -10c-170 0 -258 139 -258 310c0 170 88 310 258 310s257 -140 257 -310c0 -171 -87 -310 -257 -310zM318 79c122 0 164 100 164 220c0 118 -42 222 -164 222c-121 0 -165 -104 -165 -222c0 -120 44 -220 165 -220z" />
    <glyph glyph-name="Oslash.sc" horiz-adv-x="650" 
d="M504 538c57 -58 88 -144 88 -240c0 -171 -95 -310 -267 -310c-42 0 -80 8 -113 23l-30 -55l-62 35l33 60c-62 57 -95 146 -95 247c0 170 95 310 267 310c46 0 86 -10 121 -28l29 52l61 -35zM156 297c0 -66 14 -123 43 -163l205 370c-22 12 -48 19 -79 19
c-117 0 -169 -98 -169 -226zM325 72c117 0 169 97 169 225c0 61 -12 116 -37 156l-203 -366c20 -10 44 -15 71 -15z" />
    <glyph glyph-name="Otilde.sc" horiz-adv-x="636" 
d="M410 719l42 -34c-36 -55 -92 -65 -148 -32c-37 23 -65 17 -90 -17l-41 40c46 55 101 63 158 20c32 -17 62 -4 79 23zM318 -10c-170 0 -258 139 -258 310c0 170 88 310 258 310s257 -140 257 -310c0 -171 -87 -310 -257 -310zM318 79c122 0 164 100 164 220
c0 118 -42 222 -164 222c-121 0 -165 -104 -165 -222c0 -120 44 -220 165 -220z" />
    <glyph glyph-name="OE.sc" horiz-adv-x="749" 
d="M711 513h-246v-162h202v-82h-202v-187h246v-82h-386c-171 0 -267 126 -267 298c0 170 95 297 267 297h386v-82zM155 297c0 -128 53 -215 171 -215h45v431h-45c-118 0 -171 -88 -171 -216z" />
    <glyph glyph-name="P.sc" horiz-adv-x="517" 
d="M459 416c0 -160 -119 -199 -286 -200v-216h-94v595h171c141 0 209 -73 209 -179zM173 298c133 -1 193 25 193 110c0 68 -38 108 -126 108h-67v-218z" />
    <glyph glyph-name="Q.sc" horiz-adv-x="634" 
d="M381 -3c40 -47 128 -48 127 -50l-27 -69c-50 0 -134 6 -203 104l-8 12c-139 23 -210 151 -210 306c0 170 87 310 257 310s258 -140 258 -310c0 -148 -66 -272 -194 -303zM153 299c0 -120 43 -220 164 -220c122 0 165 100 165 220c0 118 -43 222 -165 222
c-121 0 -164 -104 -164 -222z" />
    <glyph glyph-name="R.sc" horiz-adv-x="518" 
d="M459 414c0 -91 -46 -145 -122 -169c43 -44 79 -141 122 -245h-100c-61 145 -84 224 -176 231h-10v-231h-94v595h173c139 0 207 -71 207 -181zM367 413c0 61 -40 103 -125 103h-69v-205h67c77 0 127 29 127 102z" />
    <glyph glyph-name="S.sc" horiz-adv-x="480" 
d="M360 464c-27 29 -63 57 -119 57c-58 0 -106 -30 -106 -80c0 -55 56 -72 125 -95c87 -29 182 -64 182 -182c0 -105 -77 -175 -203 -175c-92 0 -165 45 -203 83l37 78c35 -40 94 -77 165 -77c69 0 110 38 110 87c0 51 -41 75 -113 99c-85 28 -190 62 -190 177
c0 101 81 171 193 171c80 0 133 -36 167 -72z" />
    <glyph glyph-name="Scaron.sc" horiz-adv-x="473" 
d="M273 643h-73l-81 107h71l47 -63l46 63h71zM360 464c-27 29 -63 57 -119 57c-58 0 -106 -30 -106 -80c0 -55 56 -72 125 -95c87 -29 182 -64 182 -182c0 -105 -77 -175 -203 -175c-92 0 -165 45 -203 83l37 78c35 -40 94 -77 165 -77c69 0 110 38 110 87
c0 51 -41 75 -113 99c-85 28 -190 62 -190 177c0 101 81 171 193 171c80 0 133 -36 167 -72z" />
    <glyph glyph-name="T.sc" horiz-adv-x="499" 
d="M489 595v-81h-193v-514h-91v514h-195v81h479z" />
    <glyph glyph-name="U.sc" horiz-adv-x="587" 
d="M425 595h92v-371c0 -127 -52 -239 -217 -239s-219 112 -219 244v366h91v-366c0 -53 9 -158 128 -158c121 0 125 105 125 153v371z" />
    <glyph glyph-name="Uacute.sc" horiz-adv-x="605" 
d="M416 750l-70 -107h-73l50 107h93zM443 595h91v-371c0 -127 -60 -239 -225 -239s-228 112 -228 244v366h91v-366c0 -53 18 -158 137 -158c121 0 134 105 134 153v371z" />
    <glyph glyph-name="Ucircumflex.sc" horiz-adv-x="605" 
d="M307 706l-46 -63h-71l81 107h73l81 -107h-71zM443 595h91v-371c0 -127 -60 -239 -225 -239s-228 112 -228 244v366h91v-366c0 -53 18 -158 137 -158c121 0 134 105 134 153v371z" />
    <glyph glyph-name="Udieresis.sc" horiz-adv-x="605" 
d="M218 639c-29 0 -52 24 -52 52s23 52 52 52c28 0 51 -24 51 -52s-23 -52 -51 -52zM395 639c-28 0 -51 24 -51 52s23 52 51 52c29 0 52 -24 52 -52s-23 -52 -52 -52zM443 595h91v-371c0 -127 -60 -239 -225 -239s-228 112 -228 244v366h91v-366c0 -53 18 -158 137 -158
c121 0 134 105 134 153v371z" />
    <glyph glyph-name="Ugrave.sc" horiz-adv-x="605" 
d="M347 654l-64 -11l-68 96l81 11zM443 595h91v-371c0 -127 -60 -239 -225 -239s-228 112 -228 244v366h91v-366c0 -53 18 -158 137 -158c121 0 134 105 134 153v371z" />
    <glyph glyph-name="V.sc" horiz-adv-x="555" 
d="M274 82h2l174 513h95l-205 -595h-126l-204 595h94z" />
    <glyph glyph-name="W.sc" horiz-adv-x="871" 
d="M765 595h95l-201 -595h-126l-100 481l-101 -481h-126l-200 595h94l166 -512l106 512h85h37l99 -512z" />
    <glyph glyph-name="X.sc" horiz-adv-x="572" 
d="M563 595l-220 -275l220 -320h-110l-170 255l-166 -255h-110l218 320l-218 275h110l166 -223l170 223h110z" />
    <glyph glyph-name="Y.sc" horiz-adv-x="549" 
d="M501 595l-181 -317v-278h-91v278h2l-183 317h110l115 -234l118 234h110z" />
    <glyph glyph-name="Yacute.sc" horiz-adv-x="540" 
d="M370 750l-70 -107h-73l50 107h93zM497 595l-181 -317v-278h-91v278h2l-184 317h110l116 -234l118 234h110z" />
    <glyph glyph-name="Ydieresis.sc" horiz-adv-x="540" 
d="M172 639c-29 0 -52 24 -52 52s23 52 52 52c28 0 52 -24 52 -52s-24 -52 -52 -52zM350 639c-29 0 -52 24 -52 52s23 52 52 52c28 0 51 -24 51 -52s-23 -52 -51 -52zM497 595l-181 -317v-278h-91v278h2l-184 317h110l116 -234l118 234h110z" />
    <glyph glyph-name="Z.sc" horiz-adv-x="539" 
d="M497 595l-304 -514h305v-81h-457l305 514h-269v81h420z" />
    <glyph glyph-name="Zcaron.sc" horiz-adv-x="541" 
d="M308 643h-72l-82 107h72l46 -63l46 63h72zM497 595l-304 -514h305v-81h-457l305 514h-269v81h420z" />
    <glyph glyph-name="ordfeminine" unicode="&#xaa;" horiz-adv-x="370" 
d="M52 699c31 25 88 41 138 41c74 0 146 -32 146 -125v-216h-69l-10 27c-19 -15 -54 -36 -109 -36c-60 0 -114 27 -114 99c0 92 105 134 223 121v12c0 37 -36 57 -77 57c-35 0 -79 -15 -118 -41zM257 557c-65 2 -141 -14 -141 -61c0 -30 27 -47 54 -47c33 0 69 16 87 44v64z
" />
    <glyph glyph-name="ordmasculine" unicode="&#xba;" horiz-adv-x="423" 
d="M211 744c100 0 171 -68 171 -174c0 -103 -70 -174 -171 -174c-103 0 -170 77 -170 174c0 107 73 174 170 174zM211 674c-50 0 -93 -36 -93 -103s43 -103 93 -103c52 0 93 40 93 103c0 69 -41 103 -93 103z" />
    <glyph glyph-name="uni03BC" unicode="&#x3bc;" horiz-adv-x="603" 
d="M434 550h88v-550h-88v55c-51 -39 -107 -69 -166 -69c-35 0 -65 6 -89 18v-204h-88v469v281h88v-342c0 -86 29 -134 113 -134c47 0 95 22 142 57v419z" />
    <glyph glyph-name="zero" unicode="0" horiz-adv-x="629" 
d="M324 734c177 -8 229 -184 229 -370c0 -217 -61 -376 -229 -382h-19c-167 6 -229 165 -229 382c0 186 52 362 229 370h19zM315 648c-136 -1 -144 -157 -144 -300c6 -175 30 -278 144 -278s138 103 143 278c0 143 -8 299 -143 300z" />
    <glyph glyph-name="one" unicode="1" horiz-adv-x="358" 
d="M258 725v-725h-94v634h-87l44 91h137z" />
    <glyph glyph-name="two" unicode="2" horiz-adv-x="569" 
d="M84 583c29 98 131 148 215 148c126 0 232 -77 232 -234c0 -111 -59 -176 -171 -250c-93 -60 -176 -106 -176 -153h327v-95l-451 1c0 166 82 218 239 319c70 45 138 91 138 178c0 91 -59 142 -142 142c-49 0 -120 -32 -146 -104z" />
    <glyph glyph-name="three" unicode="3" horiz-adv-x="512" 
d="M108 724c31 6 59 9 85 9c155 0 226 -95 226 -193c0 -93 -62 -154 -131 -172c86 -10 163 -79 163 -180c0 -104 -84 -202 -228 -202c-82 0 -142 32 -183 81l34 77c28 -40 80 -71 138 -71c65 0 145 40 145 120c0 83 -83 118 -205 123v90c76 4 175 33 175 124
c0 58 -39 116 -141 116c-22 0 -48 -2 -78 -9v87z" />
    <glyph glyph-name="four" unicode="4" horiz-adv-x="564" 
d="M30 286l309 439h97v-439h88v-83h-88v-203h-92v205h-314v81zM132 285h212v306z" />
    <glyph glyph-name="five" unicode="5" horiz-adv-x="526" 
d="M420 725v-91h-202l-26 -175c173 6 273 -83 273 -252c0 -111 -93 -221 -222 -221c-92 0 -146 27 -193 81l35 77c27 -41 82 -74 135 -74c84 0 149 62 149 146c0 92 -64 152 -145 152c-29 0 -55 -6 -81 -18l-46 44l42 331h281z" />
    <glyph glyph-name="six" unicode="6" horiz-adv-x="597" 
d="M322 453c107 0 215 -73 215 -243s-124 -224 -223 -224c-127 0 -238 83 -238 338c0 209 55 412 335 412c21 0 43 -1 66 -4v-87c-16 2 -32 3 -47 3c-171 0 -241 -91 -258 -255c39 39 95 60 150 60zM315 77c65 0 126 44 126 133c0 76 -25 139 -136 144
c-77 0 -119 -39 -136 -75c6 -94 36 -202 146 -202z" />
    <glyph glyph-name="seven" unicode="7" horiz-adv-x="454" 
d="M453 725l-309 -725h-109l269 634h-289v91h438z" />
    <glyph glyph-name="eight" unicode="8" horiz-adv-x="589" 
d="M295 742c115 0 206 -88 206 -200c0 -69 -33 -122 -80 -156c63 -40 107 -107 107 -187c0 -123 -101 -214 -233 -214c-134 0 -234 91 -234 214c0 80 43 148 107 188c-48 33 -79 87 -79 155c0 112 90 200 206 200zM294 664c-71 0 -114 -49 -114 -118c0 -72 43 -116 114 -116
c70 0 115 44 115 116c0 69 -45 118 -115 118zM295 335c-78 0 -136 -56 -136 -133c0 -76 59 -129 136 -129s136 53 136 129c0 77 -58 133 -136 133z" />
    <glyph glyph-name="nine" unicode="9" horiz-adv-x="597" 
d="M283 736c127 0 238 -83 238 -339c0 -208 -55 -411 -335 -411c-21 0 -43 1 -66 3v87c16 -1 32 -2 47 -2c171 0 241 91 258 254c-39 -38 -96 -60 -152 -60c-105 0 -213 74 -213 244s123 224 223 224zM291 368c78 0 120 39 137 75c-6 93 -36 201 -146 201
c-65 0 -126 -44 -126 -132c0 -77 25 -139 135 -144z" />
    <glyph glyph-name="zero.osf" horiz-adv-x="694" 
d="M347 563c159 0 286 -118 286 -287c0 -168 -127 -286 -286 -286c-158 0 -286 118 -286 286c0 169 128 287 286 287zM348 467c-105 0 -190 -76 -190 -190s84 -190 190 -190s189 76 189 190s-84 190 -189 190z" />
    <glyph glyph-name="one.osf" horiz-adv-x="318" 
d="M231 550v-550h-93v462h-87l45 88h135z" />
    <glyph glyph-name="two.osf" horiz-adv-x="531" 
d="M57 427c27 93 111 140 202 140c111 0 211 -65 211 -202c0 -104 -74 -160 -149 -198c-71 -36 -141 -55 -141 -81h277v-86h-407c-1 165 129 197 229 246c55 26 100 57 100 119c0 76 -54 117 -120 117c-60 0 -115 -32 -139 -102z" />
    <glyph glyph-name="three.osf" horiz-adv-x="496" 
d="M92 559c32 5 60 8 87 8c155 0 225 -93 225 -191c0 -79 -62 -148 -132 -165c82 -10 164 -68 164 -189c0 -90 -90 -193 -219 -193c-93 0 -147 28 -192 82l34 77c27 -41 82 -72 136 -72c69 0 146 40 146 123c0 80 -83 115 -205 121v90c80 4 175 35 175 123
c0 49 -38 108 -140 108c-22 0 -49 -3 -79 -10v88z" />
    <glyph glyph-name="four.osf" horiz-adv-x="543" 
d="M30 111l309 439h97v-439h88v-83h-88v-203h-92v205h-314v81zM132 110h212v307z" />
    <glyph glyph-name="five.osf" horiz-adv-x="495" 
d="M420 550l-42 -91h-184l-22 -175c172 6 273 -83 273 -252c0 -111 -94 -221 -223 -221c-91 0 -146 27 -192 81l34 77c28 -41 83 -74 136 -74c71 0 148 62 148 146c0 92 -63 152 -145 152c-28 0 -55 -6 -81 -18l-46 44l42 331h302z" />
    <glyph glyph-name="six.osf" horiz-adv-x="571" 
d="M462 732v-87c-17 2 -32 3 -47 3c-178 0 -249 -99 -254 -250c39 35 93 55 146 55c110 0 215 -76 215 -243c0 -170 -124 -224 -223 -224c-127 0 -238 83 -238 338c0 209 55 412 335 412c21 0 43 -1 66 -4zM290 354c-84 0 -131 -51 -134 -80c1 -114 57 -197 144 -197
c65 0 126 44 126 133c0 76 -25 139 -136 144z" />
    <glyph glyph-name="seven.osf" horiz-adv-x="471" 
d="M470 549l-309 -725h-109l269 634h-311l42 91h418z" />
    <glyph glyph-name="eight.osf" horiz-adv-x="609" 
d="M305 743c115 0 206 -89 206 -201c0 -69 -32 -122 -80 -156c63 -40 108 -107 108 -187c0 -123 -102 -214 -234 -214c-133 0 -234 91 -234 214c0 80 44 148 107 188c-47 33 -79 87 -79 155c0 112 91 201 206 201zM304 665c-71 0 -114 -50 -114 -119c0 -72 43 -116 114 -116
c70 0 115 44 115 116c0 69 -45 119 -115 119zM305 335c-78 0 -136 -56 -136 -133c0 -76 59 -129 136 -129s136 53 136 129c0 77 -58 133 -136 133z" />
    <glyph glyph-name="nine.osf" horiz-adv-x="571" 
d="M272 569c130 0 239 -86 239 -338c0 -209 -55 -412 -336 -412c-21 0 -42 1 -66 3v87c17 -1 33 -2 47 -2c179 0 249 99 254 251c-39 -36 -93 -56 -147 -56c-105 0 -213 74 -213 243c0 170 123 224 222 224zM270 476c-65 0 -129 -42 -129 -131c0 -76 26 -143 136 -148
c82 0 134 54 138 84c0 113 -48 195 -145 195z" />
    <glyph glyph-name="zero.tf" 
d="M330 735c177 -8 229 -184 229 -371c0 -217 -61 -376 -229 -382h-19c-168 6 -230 165 -230 382c0 187 52 363 230 371h19zM320 649c-135 -1 -143 -157 -143 -300c5 -176 30 -279 143 -279c114 0 143 103 143 279c0 143 -8 300 -143 300z" />
    <glyph glyph-name="one.tf" 
d="M367 84h104v-84h-304v84h106v551h-89l45 91h138v-642z" />
    <glyph glyph-name="two.tf" 
d="M108 584c29 98 123 148 215 148c117 0 232 -77 232 -235c0 -111 -58 -176 -171 -250c-93 -60 -176 -106 -176 -153h328v-95l-451 1c0 166 82 218 238 319c71 45 138 91 138 179c0 91 -67 142 -142 142c-57 0 -119 -32 -146 -105z" />
    <glyph glyph-name="three.tf" 
d="M182 725c31 6 59 8 85 8c155 0 227 -95 227 -193c0 -92 -63 -154 -132 -172c86 -9 164 -79 164 -180c0 -104 -84 -202 -229 -202c-82 0 -142 32 -183 81l35 77c28 -40 79 -71 138 -71c65 0 144 41 144 121c0 82 -83 117 -205 123v90c76 4 175 33 175 124
c0 58 -39 116 -140 116c-22 0 -49 -3 -79 -9v87z" />
    <glyph glyph-name="four.tf" 
d="M73 286l309 440h97v-440h88v-83h-88v-203h-92v205h-314v81zM175 285h212v307z" />
    <glyph glyph-name="five.tf" 
d="M482 726v-91h-202l-26 -175c173 6 273 -84 273 -253c0 -111 -93 -221 -222 -221c-92 0 -146 27 -192 81l34 77c28 -41 82 -74 136 -74c83 0 148 62 148 146c0 93 -64 153 -145 153c-29 0 -55 -7 -81 -18l-46 43l42 332h281z" />
    <glyph glyph-name="six.tf" 
d="M488 733v-87c-16 2 -32 2 -47 2c-178 0 -248 -98 -253 -250c39 36 93 56 146 56c109 0 214 -77 214 -244c0 -170 -123 -224 -223 -224c-127 0 -238 83 -238 339c0 208 55 412 336 412c20 0 42 -2 65 -4zM316 354c-83 0 -131 -51 -134 -80c1 -112 57 -197 144 -197
c67 0 126 47 126 133c0 77 -25 139 -136 144z" />
    <glyph glyph-name="seven.tf" 
d="M539 726l-309 -726h-109l269 635h-289v91h438z" />
    <glyph glyph-name="eight.tf" 
d="M320 743c116 0 206 -89 206 -201c0 -69 -32 -122 -79 -156c63 -40 107 -107 107 -187c0 -123 -102 -214 -234 -214c-133 0 -234 91 -234 214c0 80 44 148 107 188c-47 33 -78 87 -78 155c0 112 90 201 205 201zM319 665c-71 0 -113 -50 -113 -119c0 -72 42 -116 113 -116
s116 44 116 116c0 69 -45 119 -116 119zM320 335c-78 0 -136 -56 -136 -133c0 -76 59 -129 136 -129c78 0 136 53 136 129c0 77 -57 133 -136 133z" />
    <glyph glyph-name="nine.tf" 
d="M312 736c130 0 238 -87 238 -338c0 -209 -55 -412 -335 -412c-21 0 -43 1 -66 3v87c16 -2 32 -2 47 -2c178 0 249 99 254 250c-39 -35 -93 -55 -148 -55c-104 0 -212 73 -212 243s123 224 222 224zM310 643c-66 0 -129 -42 -129 -131c0 -78 27 -143 136 -148
c84 0 136 55 138 84c0 113 -49 195 -145 195z" />
    <glyph glyph-name="fraction" unicode="&#x2044;" horiz-adv-x="179" 
d="M-150 -15l411 745h68l-411 -745h-68z" />
    <glyph glyph-name="onehalf" unicode="&#xbd;" horiz-adv-x="804" 
d="M100 -15l411 745h68l-411 -745h-68zM182 722l-1 -409h-67v342h-63l32 67h99zM471 357c19 56 78 84 135 84c75 0 149 -45 149 -137c0 -63 -36 -101 -109 -146c-55 -32 -102 -55 -102 -77h199v-63h-286c0 102 50 132 149 191c43 25 82 49 82 94c0 47 -40 74 -83 74
c-36 0 -75 -18 -92 -58z" />
    <glyph glyph-name="onequarter" unicode="&#xbc;" horiz-adv-x="755" 
d="M100 -15l411 745h68l-411 -745h-68zM191 722l-1 -409h-67v342h-64l33 67h99zM381 192l192 247h76v-247h57v-59h-57v-116h-67v117h-201v58zM453 191h129v167z" />
    <glyph glyph-name="threequarters" unicode="&#xbe;" horiz-adv-x="814" 
d="M82 729c20 4 38 6 55 6c98 0 140 -58 140 -125c0 -49 -38 -92 -82 -102c51 -7 101 -43 101 -117c0 -53 -56 -120 -136 -120c-58 0 -91 17 -119 50l21 49c17 -24 50 -44 82 -44c43 0 92 24 92 75c0 50 -51 70 -126 73v58c49 3 109 22 109 76c0 35 -24 71 -88 71
c-14 0 -30 -2 -49 -6v56zM192 -15l411 745h68l-412 -745h-67zM448 192l192 247h76v-247h57v-59h-57v-116h-67v117h-201v58zM521 191h128v167z" />
    <glyph glyph-name="uni00B9" unicode="&#xb9;" horiz-adv-x="245" 
d="M179 725v-409h-77v333h-63l33 76h107z" />
    <glyph glyph-name="uni00B2" unicode="&#xb2;" horiz-adv-x="367" 
d="M39 634c14 69 82 104 149 104c79 0 158 -47 158 -143c0 -87 -67 -125 -133 -153c-53 -22 -102 -38 -108 -65h230v-61l-314 1c-1 107 74 143 148 176c57 25 110 48 110 104c0 52 -45 81 -93 81c-43 0 -89 -24 -101 -77z" />
    <glyph glyph-name="uni00B3" unicode="&#xb3;" horiz-adv-x="296" 
d="M62 738c20 4 37 5 54 5c97 0 139 -55 139 -117c0 -46 -38 -86 -81 -96c51 0 100 -34 100 -109c0 -57 -55 -113 -134 -113c-58 0 -92 16 -120 47l23 56c16 -23 52 -44 85 -44c41 0 82 15 82 62s-53 65 -126 68v55c49 3 107 21 107 72c0 33 -20 61 -82 61
c-13 0 -29 -2 -47 -4v57z" />
    <glyph glyph-name="zero.sc" horiz-adv-x="594" 
d="M306 603c161 -7 210 -151 210 -307c0 -174 -57 -306 -210 -310h-17c-153 4 -212 136 -212 310c0 156 50 300 212 307h17zM297 521c-118 0 -123 -128 -123 -235c4 -128 23 -218 123 -218s123 90 123 218c0 107 -6 235 -123 235z" />
    <glyph glyph-name="one.sc" horiz-adv-x="358" 
d="M257 595v-595h-94v508h-86l44 87h136z" />
    <glyph glyph-name="two.sc" horiz-adv-x="534" 
d="M81 490c28 80 113 121 195 121c109 0 216 -64 216 -197c0 -92 -53 -146 -158 -212c-81 -46 -149 -80 -149 -113h290v-90l-414 1c0 146 72 190 216 275c62 36 120 71 120 137c0 69 -58 108 -121 108c-53 0 -109 -26 -134 -84z" />
    <glyph glyph-name="three.sc" horiz-adv-x="477" 
d="M102 599c29 6 56 8 81 8c138 0 206 -74 206 -160c0 -77 -56 -128 -119 -143c77 -8 145 -64 145 -147c0 -86 -75 -172 -208 -172c-74 0 -129 29 -164 66l32 75c24 -29 70 -57 121 -57c56 0 124 34 124 95c0 63 -71 92 -179 96v81c71 3 155 27 155 95c0 43 -33 89 -121 89
c-21 0 -45 -3 -73 -8v82z" />
    <glyph glyph-name="four.sc" horiz-adv-x="529" 
d="M32 245l273 350h103v-350h79v-81h-79v-164h-92v165h-284v80zM132 244h184v239z" />
    <glyph glyph-name="five.sc" horiz-adv-x="491" 
d="M390 595v-85h-185l-17 -132c152 3 241 -70 241 -204c0 -95 -84 -189 -205 -189c-82 0 -131 26 -172 65l32 77c24 -29 73 -58 121 -58c73 0 128 50 128 111c0 68 -55 115 -126 115c-24 0 -48 -6 -72 -15l-42 35l39 280h258z" />
    <glyph glyph-name="six.sc" horiz-adv-x="562" 
d="M443 604v-82c-16 1 -32 2 -47 2c-156 0 -215 -81 -219 -188c35 29 82 44 128 44c97 0 195 -63 195 -203c0 -144 -115 -189 -203 -189c-116 0 -220 69 -220 283c0 175 54 337 301 337c20 0 42 -1 65 -4zM288 289c-72 0 -114 -39 -115 -69c0 -85 50 -146 123 -146
c60 0 110 38 110 103c0 58 -22 108 -118 112z" />
    <glyph glyph-name="seven.sc" horiz-adv-x="416" 
d="M415 595l-279 -595h-107l240 510h-254v85h400z" />
    <glyph glyph-name="eight.sc" horiz-adv-x="551" 
d="M276 612c104 0 188 -71 188 -165c0 -56 -27 -97 -71 -127c59 -31 97 -90 97 -154c0 -103 -94 -181 -214 -181c-123 0 -216 78 -216 181c0 64 39 123 98 154c-44 30 -71 71 -71 127c0 94 85 165 189 165zM275 539c-61 0 -98 -39 -98 -90c0 -55 37 -89 98 -89
c60 0 98 34 98 89c0 51 -38 90 -98 90zM276 276c-67 0 -118 -45 -118 -104c0 -60 51 -103 118 -103c66 0 117 43 117 103c0 59 -51 104 -117 104z" />
    <glyph glyph-name="nine.sc" horiz-adv-x="562" 
d="M265 606c116 0 220 -69 220 -282c0 -174 -54 -335 -301 -335c-20 0 -42 1 -65 3v83c17 -2 32 -3 47 -3c156 0 215 81 219 188c-34 -29 -81 -44 -129 -44c-95 0 -194 62 -194 202c0 142 113 188 203 188zM265 519c-59 0 -113 -35 -113 -101c0 -59 25 -111 119 -114
c72 0 117 41 119 71c-1 84 -44 144 -125 144z" />
    <glyph glyph-name="asterisk" unicode="*" horiz-adv-x="490" 
d="M294 724l-26 -187l119 107l63 -72l-162 -86l138 -124l-75 -59l-104 152l-108 -152l-75 59l138 124l-162 86l62 72l120 -107l-24 187h96z" />
    <glyph glyph-name="backslash" unicode="\" horiz-adv-x="501" 
d="M125 780l357 -959h-106l-357 959h106z" />
    <glyph glyph-name="periodcentered" unicode="&#xb7;" horiz-adv-x="244" 
d="M121 429c36 0 67 -31 67 -67c0 -38 -29 -66 -67 -66c-39 0 -66 27 -66 66c0 38 28 67 66 67z" />
    <glyph glyph-name="bullet" unicode="&#x2022;" horiz-adv-x="337" 
d="M169 488c59 0 108 -49 108 -109c0 -59 -49 -108 -108 -108c-60 0 -109 49 -109 108c0 60 49 109 109 109z" />
    <glyph glyph-name="colon" unicode=":" horiz-adv-x="248" 
d="M124 552c38 0 67 -29 67 -67s-29 -69 -67 -69s-67 31 -67 69s29 67 67 67zM124 130c36 0 67 -31 67 -67c0 -38 -29 -66 -67 -66c-39 0 -66 27 -66 66c0 38 28 67 66 67z" />
    <glyph glyph-name="comma" unicode="," horiz-adv-x="248" 
d="M110 129c46 0 94 -39 94 -107c0 -64 -48 -144 -111 -177l-34 24c43 19 74 98 52 125l-68 68c1 38 28 67 67 67z" />
    <glyph glyph-name="ellipsis" unicode="&#x2026;" horiz-adv-x="783" 
d="M123 128c36 0 67 -31 67 -67c0 -38 -29 -66 -67 -66c-39 0 -66 27 -66 66c0 38 28 67 66 67zM391 128c36 0 67 -31 67 -67c0 -38 -29 -66 -67 -66c-39 0 -66 27 -66 66c0 38 28 67 66 67zM659 128c36 0 68 -31 68 -67c0 -38 -30 -66 -68 -66s-66 27 -66 66
c0 38 28 67 66 67z" />
    <glyph glyph-name="exclam" unicode="!" horiz-adv-x="310" 
d="M218 798l-22 -581h-85l-19 581h126zM155 116c34 0 65 -29 65 -63c0 -35 -31 -65 -65 -65c-35 0 -65 29 -65 65c0 34 30 63 65 63z" />
    <glyph glyph-name="exclamdown" unicode="&#xa1;" horiz-adv-x="310" 
d="M155 764c34 0 65 -30 65 -65c0 -34 -31 -63 -65 -63c-35 0 -65 29 -65 63c0 36 30 65 65 65zM196 535l22 -581h-126l19 581h85z" />
    <glyph glyph-name="numbersign" unicode="#" horiz-adv-x="717" 
d="M629 652l-55 -206h113l-22 -80h-113l-41 -156h113l-22 -80h-113l-55 -205h-80l56 205h-156l-55 -205h-80l56 205h-123l21 80h123l42 156h-123l21 80h123l55 206h80l-56 -206h156l55 206h80zM473 366h-156l-42 -156h156z" />
    <glyph glyph-name="period" unicode="." horiz-adv-x="248" 
d="M123 130c36 0 68 -31 68 -67c0 -38 -30 -66 -68 -66c-39 0 -66 27 -66 66c0 38 28 67 66 67z" />
    <glyph glyph-name="question" unicode="?" horiz-adv-x="442" 
d="M212 806c106 0 211 -78 211 -213c0 -122 -72 -168 -139 -201c-81 -42 -101 -50 -98 -108l5 -66h-87c-11 110 -18 164 60 215c66 42 167 53 167 164c0 79 -54 121 -127 121c-56 0 -106 -23 -151 -60l-34 73c53 48 118 75 193 75zM149 116c34 0 65 -29 65 -63
c0 -35 -31 -65 -65 -65s-64 29 -64 64s30 64 64 64z" />
    <glyph glyph-name="questiondown" unicode="&#xbf;" horiz-adv-x="484" 
d="M314 569c34 0 64 -29 64 -66c0 -34 -30 -62 -64 -62s-66 28 -66 62c0 36 32 66 66 66zM359 339c11 -111 18 -163 -60 -215c-67 -44 -167 -51 -167 -167c0 -75 53 -118 126 -118c57 0 107 22 152 60l34 -74c-53 -48 -117 -75 -193 -75c-126 0 -211 86 -211 203
c0 101 34 162 138 212c83 40 102 54 99 107l-5 67h87z" />
    <glyph glyph-name="quotedbl" unicode="&#x22;" horiz-adv-x="288" 
d="M109 750v-270h-67v270h67zM246 750v-270h-68v270h68z" />
    <glyph glyph-name="quotesingle" unicode="'" horiz-adv-x="251" 
d="M158 750v-270h-67v270h67z" />
    <glyph glyph-name="semicolon" unicode=";" horiz-adv-x="248" 
d="M125 552c38 0 67 -29 67 -67s-29 -69 -67 -69s-67 31 -67 69s29 67 67 67zM110 129c46 0 94 -39 94 -107c0 -64 -48 -144 -111 -177l-34 24c43 19 74 98 52 125l-68 68c1 38 28 67 67 67z" />
    <glyph glyph-name="slash" unicode="/" horiz-adv-x="499" 
d="M480 780l-357 -959h-104l357 959h104z" />
    <glyph glyph-name="underscore" unicode="_" horiz-adv-x="500" 
d="M500 -20v-88h-500v88h500z" />
    <glyph glyph-name="braceleft" unicode="{" horiz-adv-x="352" 
d="M60 322c23 21 64 46 64 97c0 250 48 322 198 390v-80c-123 -72 -89 -173 -108 -305c-8 -61 -62 -132 -61 -132c-1 0 53 -71 61 -132c19 -132 -15 -234 108 -305v-80c-150 67 -198 141 -198 390c0 50 -41 76 -64 96v61z" />
    <glyph glyph-name="braceright" unicode="}" horiz-adv-x="352" 
d="M30 809c150 -68 198 -140 198 -390c0 -51 41 -76 64 -97v-61c-23 -20 -64 -46 -64 -96c0 -249 -48 -323 -198 -390v80c124 71 89 173 108 305c8 61 62 132 61 132c1 0 -53 71 -61 132c-19 132 16 233 -108 305v80z" />
    <glyph glyph-name="bracketleft" unicode="[" horiz-adv-x="369" 
d="M329 751v-72h-140v-858h140v-72h-228v1002h228z" />
    <glyph glyph-name="bracketright" unicode="]" horiz-adv-x="369" 
d="M40 751l228 -1v-1001l-228 1v72h141v857h-141v72z" />
    <glyph glyph-name="parenleft" unicode="(" horiz-adv-x="403" 
d="M373 834c-116 -143 -209 -337 -209 -528c0 -203 80 -419 209 -556h-92c-140 119 -220 330 -220 556c0 193 80 394 220 528h92z" />
    <glyph glyph-name="parenright" unicode=")" horiz-adv-x="403" 
d="M122 834c140 -134 220 -335 220 -528c0 -226 -80 -437 -220 -556h-92c129 137 209 353 209 556c0 191 -93 385 -209 528h92z" />
    <glyph glyph-name="emdash" unicode="&#x2014;" horiz-adv-x="1000" 
d="M1000 319v-88h-1000v88h1000z" />
    <glyph glyph-name="endash" unicode="&#x2013;" horiz-adv-x="500" 
d="M500 319v-88h-500v88h500z" />
    <glyph glyph-name="hyphen" unicode="-" horiz-adv-x="446" 
d="M386 326v-95h-326v95h326z" />
    <glyph glyph-name="guillemotleft" unicode="&#xab;" horiz-adv-x="668" 
d="M355 523v-93l-204 -154l204 -160v-93l-340 253zM608 523v-93l-204 -154l204 -160v-93l-340 253z" />
    <glyph glyph-name="guillemotright" unicode="&#xbb;" horiz-adv-x="668" 
d="M61 523l339 -247l-339 -253v93l203 160l-203 154v93zM314 523l339 -247l-339 -253v93l203 160l-203 154v93z" />
    <glyph glyph-name="guilsinglleft" unicode="&#x2039;" horiz-adv-x="416" 
d="M355 523v-93l-204 -154l204 -160v-93l-340 253z" />
    <glyph glyph-name="guilsinglright" unicode="&#x203a;" horiz-adv-x="416" 
d="M61 523l339 -247l-339 -253v93l203 160l-203 154v93z" />
    <glyph glyph-name="quotedblbase" unicode="&#x201e;" horiz-adv-x="434" 
d="M124 129c45 0 94 -39 94 -107c0 -64 -49 -144 -111 -177l-35 24c43 19 75 98 53 125l-68 68c0 38 28 67 67 67zM283 129c46 0 94 -39 94 -107c1 -64 -48 -144 -111 -177l-34 24c43 19 75 98 53 125l-68 68c0 38 28 67 66 67z" />
    <glyph glyph-name="quotedblleft" unicode="&#x201c;" horiz-adv-x="434" 
d="M152 750l34 -24c-43 -19 -75 -98 -52 -125l68 -68c-1 -38 -29 -67 -67 -67c-46 0 -94 39 -94 107c-1 64 48 144 111 177zM344 750l34 -24c-43 -19 -74 -98 -52 -125l68 -68c-1 -38 -28 -67 -67 -67c-46 0 -94 39 -94 107c0 64 48 144 111 177z" />
    <glyph glyph-name="quotedblright" unicode="&#x201d;" horiz-adv-x="434" 
d="M108 752c45 0 93 -39 94 -107c0 -64 -49 -144 -111 -177l-35 24c43 19 75 98 53 125l-68 68c0 38 28 67 67 67zM300 752c45 0 94 -39 94 -107c0 -64 -49 -144 -111 -177l-35 24c43 19 75 98 53 125l-68 68c0 38 28 67 67 67z" />
    <glyph glyph-name="quoteleft" unicode="&#x2018;" horiz-adv-x="248" 
d="M154 750l35 -24c-43 -19 -75 -98 -53 -125l68 -68c0 -38 -28 -67 -67 -67c-45 0 -94 39 -94 107c0 64 49 144 111 177z" />
    <glyph glyph-name="quoteright" unicode="&#x2019;" horiz-adv-x="248" 
d="M110 750c46 0 94 -39 94 -107c0 -64 -48 -144 -111 -177l-34 24c43 19 74 98 52 125l-68 69c1 37 28 66 67 66z" />
    <glyph glyph-name="quotesinglbase" unicode="&#x201a;" horiz-adv-x="248" 
d="M110 129c46 0 94 -39 94 -107c0 -64 -48 -144 -111 -177l-34 24c43 19 74 98 52 125l-68 68c1 38 28 67 67 67z" />
    <glyph glyph-name="space" unicode=" " horiz-adv-x="250" 
 />
    <glyph glyph-name=".null" horiz-adv-x="0" 
 />
    <glyph glyph-name="cent" unicode="&#xa2;" horiz-adv-x="586" 
d="M537 87c-36 -46 -82 -89 -170 -99v-76h-84v77c-132 22 -207 141 -207 288c0 161 83 265 207 285v85h84v-83c93 -10 138 -60 161 -103l-50 -65c-18 37 -52 74 -111 84v-202v-209c55 9 89 39 109 78zM164 277c0 -127 59 -184 119 -203v211v190c-60 -20 -119 -77 -119 -198z
" />
    <glyph glyph-name="currency" unicode="&#xa4;" horiz-adv-x="544" 
d="M504 133l-62 -62l-63 64c-32 -20 -68 -31 -106 -31c-39 0 -76 11 -108 30l-62 -63l-62 62l62 63c-21 31 -34 69 -34 111c0 41 13 79 33 110l-61 63l62 62l62 -64c32 20 69 32 108 32s76 -12 107 -32l50 55l68 -48l-59 -64c22 -33 35 -72 35 -114s-12 -80 -33 -111z
M151 307c0 -68 54 -121 122 -121s122 53 122 121s-54 123 -122 123s-122 -55 -122 -123z" />
    <glyph glyph-name="dollar" unicode="$" horiz-adv-x="604" 
d="M542 198c0 -112 -75 -195 -197 -210v-91h-84v91c-107 13 -179 72 -204 111l48 75c23 -44 80 -90 156 -102v264c-85 27 -191 74 -191 197c0 100 71 189 191 204v71h84v-72c58 -9 104 -34 136 -68l-34 -79c-24 33 -61 52 -102 59v-239c87 -28 197 -73 197 -211zM161 540
c0 -57 42 -83 100 -104v211c-63 -12 -100 -53 -100 -107zM345 74c66 15 104 62 104 118c0 58 -38 91 -104 117v-235z" />
    <glyph glyph-name="Euro" unicode="&#x20ac;" horiz-adv-x="749" 
d="M632 135l40 -83c-52 -44 -118 -67 -193 -67c-167 0 -268 109 -302 260h-171l36 63h126c-2 18 -3 36 -3 55c0 18 1 35 2 52h-137l36 63h111c33 152 134 263 302 263c57 0 111 -14 153 -40l-38 -80c-30 21 -67 34 -116 34c-118 0 -181 -75 -206 -177h308l-37 -63h-282
c-1 -17 -2 -35 -2 -53s1 -36 2 -54h295l-37 -63h-247c25 -101 89 -174 206 -174c68 0 118 24 154 64z" />
    <glyph glyph-name="florin" unicode="&#x192;" horiz-adv-x="531" 
d="M470 750c21 0 42 -2 62 -6l-28 -77c-14 2 -28 4 -41 4c-102 0 -144 -72 -169 -210h134v-73h-147l-46 -257c-36 -202 -97 -365 -218 -365l-54 53c100 0 147 128 173 285l50 284h-95v73h108v1c35 216 137 288 271 288z" />
    <glyph glyph-name="sterling" unicode="&#xa3;" horiz-adv-x="558" 
d="M470 740l-16 -85c-31 19 -71 30 -107 30c-66 0 -125 -34 -125 -102v-261h164v-58h-164v-181h315v-83h-409v264h-108v58h108v259c0 132 92 191 200 191c46 0 95 -11 142 -32z" />
    <glyph glyph-name="yen" unicode="&#xa5;" horiz-adv-x="641" 
d="M630 726l-243 -395h192v-63h-211v-74h211v-63h-211v-131h-94v131h-211v63h211v74h-211v63h189l-241 395h110l201 -353l198 353h110z" />
    <glyph glyph-name="approxequal" unicode="&#x2248;" horiz-adv-x="637" 
d="M536 444l76 -65c-68 -88 -209 -102 -310 -49c-76 40 -152 30 -204 -26l-74 70c89 95 211 97 331 33c62 -36 146 -11 181 37zM536 235l76 -65c-68 -87 -209 -102 -310 -49c-76 40 -152 30 -204 -26l-74 70c89 95 211 97 331 33c62 -36 146 -11 181 37z" />
    <glyph glyph-name="asciitilde" unicode="~" horiz-adv-x="535" 
d="M468 341l51 -46c-74 -82 -185 -82 -272 -41c-94 45 -143 23 -183 -18l-48 42c58 80 174 88 261 40c100 -48 157 -21 191 23z" />
    <glyph glyph-name="divide" unicode="&#xf7;" horiz-adv-x="594" 
d="M297 551c38 0 67 -29 67 -67s-29 -69 -67 -69s-67 31 -67 69s29 67 67 67zM574 318v-88h-554v88h554zM297 130c36 0 67 -31 67 -67c0 -38 -29 -66 -67 -66c-39 0 -66 27 -66 66c0 38 28 67 66 67z" />
    <glyph glyph-name="equal" unicode="=" horiz-adv-x="594" 
d="M574 421v-88h-554v88h554zM574 212v-88h-554v88h554z" />
    <glyph glyph-name="greater" unicode="&#x3e;" horiz-adv-x="593" 
d="M61 550l515 -277l-517 -277v93l361 184l-359 184v93z" />
    <glyph glyph-name="greaterequal" unicode="&#x2265;" horiz-adv-x="577" 
d="M42 550l514 -197l-516 -198v93l319 105l-317 104v93zM40 93h515v-88h-515v88z" />
    <glyph glyph-name="less" unicode="&#x3c;" horiz-adv-x="593" 
d="M530 550v-93l-358 -184l360 -184v-93l-517 277z" />
    <glyph glyph-name="lessequal" unicode="&#x2264;" horiz-adv-x="577" 
d="M536 550v-93l-317 -104l320 -105v-93l-517 198zM539 93v-88h-516v88h516z" />
    <glyph glyph-name="logicalnot" unicode="&#xac;" horiz-adv-x="573" 
d="M522 550v-311h-88v223h-419v88h507z" />
    <glyph glyph-name="minus" unicode="&#x2212;" horiz-adv-x="500" 
d="M480 318v-88h-460v88h460z" />
    <glyph glyph-name="multiply" unicode="&#xd7;" horiz-adv-x="550" 
d="M480 493l48 -51l-203 -202l205 -206l-49 -50l-205 205l-205 -205l-51 50l205 204l-204 204l50 51l205 -205z" />
    <glyph glyph-name="notequal" unicode="&#x2260;" horiz-adv-x="594" 
d="M574 333h-214l-37 -121h251v-88h-278l-37 -123h-98l38 123h-179v88h206l36 121h-242v88h269l39 128h98l-39 -128h187v-88z" />
    <glyph glyph-name="percent" unicode="%" horiz-adv-x="1009" 
d="M254 756c106 0 194 -91 194 -206c0 -111 -88 -204 -194 -204c-108 0 -196 93 -196 204c0 115 88 206 196 206zM652 742h107l-414 -756h-107zM254 674c-66 0 -115 -56 -115 -124c0 -66 49 -122 115 -122c65 0 114 56 114 122c0 68 -49 124 -114 124zM757 397
c106 0 194 -90 194 -205c0 -112 -88 -204 -194 -204c-108 0 -196 92 -196 204c0 115 88 205 196 205zM757 315c-66 0 -115 -55 -115 -123c0 -67 49 -122 115 -122c65 0 114 55 114 122c0 68 -49 123 -114 123z" />
    <glyph glyph-name="plus" unicode="+" horiz-adv-x="594" 
d="M341 550v-232h233v-88h-233v-231h-88v231h-233v88h233v232h88z" />
    <glyph glyph-name="plusminus" unicode="&#xb1;" horiz-adv-x="594" 
d="M341 606v-197h233v-88h-233v-192h-88v192h-233v88h233v197h88zM574 88v-88h-554v88h554z" />
    <glyph glyph-name="bar" unicode="|" horiz-adv-x="291" 
d="M190 750v-1000h-89v1000h89z" />
    <glyph glyph-name="brokenbar" unicode="&#xa6;" horiz-adv-x="270" 
d="M179 750v-370h-88v370h88zM179 120v-370h-88v370h88z" />
    <glyph glyph-name="at" unicode="@" horiz-adv-x="897" 
d="M504 756c227 0 329 -167 329 -321c0 -133 -75 -255 -209 -255c-57 0 -105 21 -106 65c-46 -31 -95 -48 -137 -48c-64 0 -115 38 -115 125c0 137 133 234 224 233c40 0 73 -16 85 -55c35 0 60 -15 60 -48c0 -21 -10 -49 -34 -87c-15 -22 -34 -51 -34 -73
c0 -17 12 -30 50 -30c83 0 124 70 124 151c0 115 -80 254 -246 254c-192 0 -344 -188 -344 -380c0 -161 109 -238 236 -238c61 0 127 17 186 52l36 -70c-73 -43 -154 -65 -231 -65c-169 0 -318 105 -318 328c0 253 193 462 444 462zM520 488c-52 0 -130 -59 -162 -124
c-8 -17 -11 -32 -11 -45c0 -30 20 -47 48 -47c23 0 50 10 78 32c39 34 83 106 83 150c0 20 -10 34 -36 34z" />
    <glyph glyph-name="ampersand" unicode="&#x26;" horiz-adv-x="776" 
d="M324 739c104 0 170 -78 170 -166c0 -66 -37 -134 -120 -176l146 -165c15 36 26 88 28 175h-28v51h180v-51h-68c-3 -104 -17 -176 -50 -245l120 -129l-55 -59l-111 116c-55 -65 -145 -102 -236 -102c-117 0 -224 66 -224 213c0 115 68 176 165 221c-49 59 -72 116 -72 167
c0 88 63 150 155 150zM326 664c-49 0 -75 -34 -75 -77c0 -38 22 -85 70 -129c63 29 90 76 90 120c0 46 -33 86 -85 86zM295 362c-95 -45 -130 -103 -130 -157c0 -75 66 -135 148 -135c57 0 115 26 165 86z" />
    <glyph glyph-name="paragraph" unicode="&#xb6;" horiz-adv-x="618" 
d="M521 752l-1 -1002h-70v939h-105v-939h-70v563c-126 1 -225 85 -225 223c0 136 97 216 247 216h224z" />
    <glyph glyph-name="copyright" unicode="&#xa9;" horiz-adv-x="843" 
d="M422 746c210 0 380 -170 380 -381c0 -210 -170 -380 -380 -380c-211 0 -380 170 -380 380c0 211 169 381 380 381zM423 671c-169 0 -307 -137 -307 -305c0 -170 138 -307 307 -307s306 137 306 307c0 168 -137 305 -306 305zM424 592c92 0 133 -50 155 -81l-40 -55
c-21 31 -52 63 -113 63c-53 0 -124 -35 -124 -154c0 -124 77 -154 124 -154c50 0 87 24 110 56l47 -48c-25 -39 -69 -80 -161 -80c-123 0 -198 104 -198 226c0 138 85 227 200 227z" />
    <glyph glyph-name="registered" unicode="&#xae;" horiz-adv-x="707" 
d="M355 721c167 0 301 -136 301 -303c0 -166 -134 -302 -301 -302s-304 136 -304 302c0 167 136 303 304 303zM353 170c138 0 247 113 247 250c2 142 -113 247 -246 247c-138 0 -249 -110 -249 -247s111 -250 248 -250zM393 401c21 -11 40 -49 51 -79l32 -82h-50l-24 62
c-19 56 -49 83 -91 85h-8v-147h-48v372h83c86 0 125 -50 125 -109c0 -55 -28 -86 -70 -102zM303 567v-134c69 0 112 21 112 63c0 39 -19 71 -83 71h-29z" />
    <glyph glyph-name="section" unicode="&#xa7;" horiz-adv-x="628" 
d="M314 740c101 0 162 -48 201 -99l-61 -66c-29 39 -68 76 -139 76c-76 0 -139 -41 -139 -111c0 -74 71 -98 160 -125c94 -29 221 -69 221 -217c0 -46 -13 -87 -37 -121c22 -29 37 -66 37 -116c0 -125 -94 -212 -240 -212c-130 0 -217 69 -246 114l49 74
c26 -51 98 -104 194 -104s148 56 148 123c0 66 -48 101 -150 132c-90 26 -227 67 -227 208c0 45 14 88 41 123c-25 28 -41 65 -41 114c0 111 86 207 229 207zM198 367c-14 -17 -22 -39 -22 -64c0 -75 73 -98 160 -125c35 -11 75 -23 111 -42c10 17 15 36 15 57
c0 69 -53 103 -150 132c-35 10 -76 22 -114 42z" />
    <glyph glyph-name="trademark" unicode="&#x2122;" horiz-adv-x="804" 
d="M351 725v-61h-127v-297h-67v297h-127v61h321zM754 725v-358h-67v244l-108 -192l-109 194v-246h-62v358h71l100 -195l104 195h71z" />
    <glyph glyph-name="degree" unicode="&#xb0;" horiz-adv-x="402" 
d="M202 728c84 0 150 -68 150 -152c0 -83 -66 -151 -150 -151s-152 68 -152 151c0 84 68 152 152 152zM202 668c-51 0 -91 -41 -91 -92c0 -50 40 -90 91 -90s91 40 91 90c0 51 -40 92 -91 92z" />
    <glyph glyph-name="asciicircum" unicode="^" horiz-adv-x="389" 
d="M248 708l131 -292h-82l-103 239l-102 -239h-82l131 292h107z" />
    <glyph glyph-name="dagger" unicode="&#x2020;" horiz-adv-x="493" 
d="M291 725v-175h192v-88h-192v-612h-89v612h-192v88h192v175h89z" />
    <glyph glyph-name="daggerdbl" unicode="&#x2021;" horiz-adv-x="514" 
d="M301 725v-171h193v-88h-193v-276h193v-87h-193v-253h-88v253h-193v87h193v276h-193v88h193v171h88z" />
    <glyph glyph-name="at.sc" horiz-adv-x="745" 
d="M415 622c193 0 280 -138 280 -266c0 -109 -63 -210 -175 -210c-48 0 -86 16 -91 53c-35 -25 -76 -39 -109 -39c-54 0 -101 32 -101 107c0 109 117 190 192 190c34 0 62 -12 73 -44c28 -2 48 -16 48 -42c0 -18 -8 -41 -28 -72c-13 -18 -27 -41 -27 -58c0 -13 9 -25 40 -25
c63 0 95 57 95 122c0 92 -59 204 -200 204c-159 0 -281 -148 -281 -305c0 -130 88 -193 193 -193c51 0 105 14 155 43l33 -64c-61 -36 -130 -55 -196 -55c-141 0 -268 87 -268 273c0 208 159 381 367 381zM433 399c-40 0 -103 -47 -130 -101c-7 -14 -10 -26 -10 -37
c0 -23 16 -36 38 -36c17 0 38 7 59 24c29 25 70 89 70 125c0 15 -8 25 -27 25z" />
    <glyph glyph-name="ampersand.sc" horiz-adv-x="644" 
d="M269 605c89 0 144 -61 144 -133c0 -56 -30 -111 -98 -145l116 -131c12 31 19 76 20 135h-22v45h153v-45h-54c-3 -80 -13 -143 -41 -199l101 -109l-52 -54l-94 99c-42 -52 -112 -81 -190 -81c-100 0 -193 56 -193 177c0 92 51 142 136 183c-40 45 -60 90 -60 132
c0 74 54 126 134 126zM270 539c-38 0 -57 -27 -57 -60c0 -28 18 -64 54 -100c48 25 68 61 68 95c0 36 -25 65 -65 65zM243 292c-73 -36 -98 -77 -98 -121c0 -59 52 -109 115 -109c50 0 93 21 128 66z" />
    <glyph glyph-name="dollar.sc" horiz-adv-x="498" 
d="M451 164c0 -93 -59 -158 -160 -173v-76h-82v76c-74 11 -132 49 -164 81l37 77c28 -32 73 -63 127 -73v195c-75 27 -154 66 -154 165c0 89 62 154 154 168v62h82v-63c45 -7 84 -27 110 -50l-27 -79c-20 23 -51 38 -83 44l-1 -178c78 -27 161 -67 161 -176zM143 441
c0 -38 27 -57 66 -73v148c-41 -11 -66 -38 -66 -75zM291 78c42 12 67 43 67 81c0 40 -25 64 -68 83z" />
    <glyph glyph-name="Euro.sc" horiz-adv-x="614" 
d="M522 115l34 -75c-38 -34 -94 -52 -162 -52c-138 0 -225 90 -253 214h-136l28 53h99c-1 14 -2 28 -2 43c0 14 1 27 2 41h-109l28 53h90c28 125 115 216 253 216c55 0 103 -14 133 -33l-33 -75c-27 18 -61 27 -100 27c-90 0 -140 -55 -161 -135h236l-26 -53h-219
c-1 -14 -2 -28 -2 -42s1 -28 2 -42h228l-27 -53h-192c21 -80 71 -134 161 -134c54 0 97 16 128 47z" />
    <glyph glyph-name="percent.sc" horiz-adv-x="840" 
d="M209 617c90 0 162 -75 162 -170c0 -93 -72 -170 -162 -170c-92 0 -164 77 -164 170c0 95 72 170 164 170zM542 606h89l-345 -620h-90zM209 543c-52 0 -88 -43 -88 -96c0 -52 36 -95 88 -95c50 0 86 43 86 95c0 53 -36 96 -86 96zM632 333c91 0 163 -76 163 -171
c0 -93 -72 -169 -163 -169c-92 0 -164 76 -164 169c0 95 72 171 164 171zM632 258c-51 0 -87 -43 -87 -96c0 -51 36 -95 87 -95s87 44 87 95c0 53 -36 96 -87 96z" />
    <glyph glyph-name="sterling.sc" horiz-adv-x="469" 
d="M395 607l-13 -77c-25 15 -59 24 -89 24c-53 0 -101 -28 -101 -83v-195h134v-57h-134v-144h258v-75h-345v219h-89v57h89v198c0 111 79 159 169 159c41 0 83 -9 121 -26z" />
    <glyph glyph-name="yen.sc" horiz-adv-x="535" 
d="M525 595l-199 -321h153v-54h-168v-61h168v-55h-168v-104h-88v104h-167v55h167v61h-167v54h150l-197 321h104l154 -277l154 277h104z" />
    <glyph glyph-name="florin.sc" horiz-adv-x="438" 
d="M388 615c17 0 35 -2 51 -5l-24 -70c-11 2 -22 3 -33 3c-84 0 -116 -60 -134 -163h110v-61h-120l-38 -213c-31 -173 -97 -327 -172 -278l-50 36c76 -1 109 93 133 231l39 224h-75v61h86v3c28 172 114 232 227 232z" />
    <glyph glyph-name="acute" unicode="&#xb4;" horiz-adv-x="238" 
d="M213 750l-95 -144h-72l74 144h93z" />
    <glyph glyph-name="breve" unicode="&#x2d8;" horiz-adv-x="328" 
d="M378 766c0 -94 -88 -181 -213 -181c-126 0 -215 87 -215 181h68c3 -28 22 -121 147 -121c119 0 141 93 146 121h67z" />
    <glyph glyph-name="caron" unicode="&#x2c7;" horiz-adv-x="302" 
d="M307 750l-112 -143h-88l-112 143h64l91 -89l93 89h64z" />
    <glyph glyph-name="cedilla" unicode="&#xb8;" horiz-adv-x="246" 
d="M230 7c4 -21 6 -41 6 -58c0 -98 -59 -140 -142 -140c-26 0 -54 4 -84 12v77c25 -6 49 -10 70 -10c44 0 73 18 73 74c0 13 -2 28 -5 45h82z" />
    <glyph glyph-name="circumflex" unicode="&#x2c6;" horiz-adv-x="274" 
d="M182 750l112 -143h-65l-92 89l-92 -89h-65l113 143h89z" />
    <glyph glyph-name="dieresis" unicode="&#xa8;" horiz-adv-x="406" 
d="M105 742c28 0 51 -23 51 -51s-23 -51 -51 -51s-51 23 -51 51s23 51 51 51zM301 742c28 0 51 -23 51 -51s-23 -51 -51 -51c-27 0 -51 23 -51 51s24 51 51 51z" />
    <glyph glyph-name="dotaccent" unicode="&#x2d9;" horiz-adv-x="75" 
d="M38 741c31 0 56 -26 56 -57c0 -32 -25 -57 -56 -57s-57 25 -57 57c0 31 26 57 57 57z" />
    <glyph glyph-name="grave" unicode="`" horiz-adv-x="132" 
d="M58 750l73 -129l-61 -15l-90 129z" />
    <glyph glyph-name="hungarumlaut" unicode="&#x2dd;" horiz-adv-x="410" 
d="M246 767l-143 -182h-93l114 182h122zM460 767l-142 -182h-93l114 182h121z" />
    <glyph glyph-name="macron" unicode="&#xaf;" horiz-adv-x="321" 
d="M-15 731h350v-81h-350v81z" />
    <glyph glyph-name="ogonek" unicode="&#x2db;" horiz-adv-x="240" 
d="M95 26h101c-51 -20 -76 -57 -76 -90s27 -61 76 -61c12 0 25 2 40 5v-65c-42 -19 -78 -27 -109 -27c-78 0 -122 49 -122 101c0 47 18 105 90 137z" />
    <glyph glyph-name="ring" unicode="&#x2da;" horiz-adv-x="172" 
d="M85 833c58 0 106 -50 106 -108s-48 -106 -106 -106c-59 0 -104 47 -104 106c0 58 46 108 104 108zM86 788c-32 0 -61 -29 -61 -61c0 -33 28 -63 61 -63c34 0 61 34 61 63c0 32 -29 61 -61 61z" />
    <glyph glyph-name="tilde" unicode="&#x2dc;" horiz-adv-x="350" 
d="M295 716l51 -41c-43 -67 -112 -79 -180 -38c-45 27 -79 19 -110 -21l-49 48c55 68 122 77 192 25c39 -22 75 -5 96 27z" />
    <glyph glyph-name="acute.case" horiz-adv-x="127" 
d="M177 885l-94 -144h-73l74 144h93z" />
    <glyph glyph-name="caron.case" horiz-adv-x="254" 
d="M284 897l-113 -143h-89l-112 143h65l91 -89l93 89h65z" />
    <glyph glyph-name="circumflex.case" horiz-adv-x="295" 
d="M192 886l112 -143h-64l-93 89l-92 -89h-64l112 143h89z" />
    <glyph glyph-name="dieresis.case" horiz-adv-x="407" 
d="M105 856c28 0 51 -23 51 -51s-23 -51 -51 -51s-51 23 -51 51s23 51 51 51zM302 856c28 0 51 -23 51 -51s-23 -51 -51 -51s-51 23 -51 51s23 51 51 51z" />
    <glyph glyph-name="grave.case" horiz-adv-x="241" 
d="M128 894l72 -129l-61 -15l-89 130z" />
    <glyph glyph-name="ring.case" horiz-adv-x="230" 
d="M112 964c59 0 106 -50 106 -108c0 -59 -47 -106 -106 -106s-104 46 -104 106c0 58 46 108 104 108zM113 919c-32 0 -61 -29 -61 -61c0 -33 28 -63 61 -63c34 0 61 34 61 63c0 32 -29 61 -61 61z" />
    <glyph glyph-name="tilde.case" horiz-adv-x="319" 
d="M278 856l51 -41c-43 -67 -112 -79 -180 -38c-44 27 -79 19 -110 -21l-49 48c55 68 123 77 192 25c39 -22 75 -5 96 27z" />
    <glyph glyph-name="nonmarkingreturn" horiz-adv-x="389" 
 />
    </font>
</defs>
</svg>
